<?xml version="1.0" encoding="UTF-8" standalone="no"?>
<!-- Created with Inkscape (http://www.inkscape.org/) -->

<svg
   version="1.1"
   id="svg2"
   width="1333.3333"
   height="1333.3333"
   viewBox="0 0 1333.3333 1333.3333"
   sodipodi:docname="20364.eps"
   xmlns:inkscape="http://www.inkscape.org/namespaces/inkscape"
   xmlns:sodipodi="http://sodipodi.sourceforge.net/DTD/sodipodi-0.dtd"
   xmlns="http://www.w3.org/2000/svg"
   xmlns:svg="http://www.w3.org/2000/svg">
  <defs
     id="defs6" />
  <sodipodi:namedview
     id="namedview4"
     pagecolor="#ffffff"
     bordercolor="#000000"
     borderopacity="0.25"
     inkscape:showpageshadow="2"
     inkscape:pageopacity="0.0"
     inkscape:pagecheckerboard="0"
     inkscape:deskcolor="#d1d1d1" />
  <g
     id="g8"
     inkscape:groupmode="layer"
     inkscape:label="ink_ext_XXXXXX"
     transform="matrix(1.3333333,0,0,-1.3333333,0,1333.3333)">
    <g
       id="g10"
       transform="scale(0.1)">
      <path
         d="M 10000,0 H 0 V 10000 H 10000 V 0"
         style="fill:#ffffff;fill-opacity:1;fill-rule:nonzero;stroke:none"
         id="path12" />
      <path
         d="m 7664.26,5356.41 c -0.14,1.71 -0.42,3.31 -0.71,4.92 -2.5,-0.11 -4.95,-0.22 -7.4,-0.32 2.27,-1.83 4.92,-3.39 8.11,-4.6"
         style="fill:#7989af;fill-opacity:1;fill-rule:nonzero;stroke:none"
         id="path14" />
      <path
         d="m 7607.13,5356.06 c 1.41,0.88 2.67,1.83 3.85,2.82 -1.34,-0.07 -2.73,-0.13 -4.05,-0.2 0.1,-0.88 0.02,-1.7 0.2,-2.62"
         style="fill:#7989af;fill-opacity:1;fill-rule:nonzero;stroke:none"
         id="path16" />
      <path
         d="m 7663.55,5361.33 c 113.77,4.9 270.08,8.1 306.96,-19.68 -56.62,42.68 -252.04,34.37 -315.92,37.63 4.96,-4.66 7.7,-10.82 8.96,-17.95"
         style="fill:#7989af;fill-opacity:1;fill-rule:nonzero;stroke:none"
         id="path18" />
      <path
         d="m 7615.04,5381.41 c -26.47,1.05 -52.83,-0.16 -79.16,-3.66 6,-6.47 9.45,-14.08 11.1,-22.21 3.29,0.41 6.6,0.87 9.94,0.96 11.82,0.32 29.13,1.17 50.01,2.18 -0.93,8.96 2.09,16.41 8.11,22.73"
         style="fill:#7989af;fill-opacity:1;fill-rule:nonzero;stroke:none"
         id="path20" />
      <path
         d="m 7645.98,5379.74 c -9.21,0.98 -18.44,1.53 -27.68,1.62 2.31,-9.28 -0.57,-16.8 -7.32,-22.48 13.78,0.68 28.97,1.41 45.17,2.13 -5.79,4.65 -8.85,11.12 -10.17,18.73"
         style="fill:#7989af;fill-opacity:1;fill-rule:nonzero;stroke:none"
         id="path22" />
      <path
         d="m 7471.56,5425.42 c -73.42,-14.28 -145.36,-34.71 -215.97,-59.33 3.61,-14.78 -23.57,-40.37 -30.47,-10.76 -17.43,-5.62 -33.73,-13.85 -48.85,-24.66 12.86,-38.89 51.37,-9.41 80.05,-19.72 -2.95,-3.43 -5.87,-6.85 -8.82,-10.26 -9.44,-3.84 -15.94,-11.27 -22.54,-18.58 -20.19,-4.09 -76.35,11.68 -89.7,24.96 -48.46,-28.82 -94.99,-60.88 -140.84,-93.7 42.57,5.94 85.78,10.81 128.96,12.73 138.14,68.12 245.56,94.61 393.25,123.79 -13.11,22.79 -66.52,39.04 -45.07,75.53"
         style="fill:#7989af;fill-opacity:1;fill-rule:nonzero;stroke:none"
         id="path24" />
      <path
         d="m 7519.67,5394.46 c 51.35,18.89 102.89,37.16 154.73,54.66 -58.7,-3.56 -117.34,-9.26 -175.2,-18.94 5.7,-12.48 12.54,-24.39 20.47,-35.72"
         style="fill:#7989af;fill-opacity:1;fill-rule:nonzero;stroke:none"
         id="path26" />
      <path
         d="m 8833.29,5422.81 c 2.37,-4.42 3.86,-8.16 3.98,-10.8 -0.14,3.14 -1.6,6.79 -3.98,10.8"
         style="fill:#7989af;fill-opacity:1;fill-rule:nonzero;stroke:none"
         id="path28" />
      <path
         d="m 9141.21,5294.39 c 0.31,-0.88 0.67,-1.83 0.7,-2.41 -0.03,0.67 -0.31,1.5 -0.7,2.41"
         style="fill:#7989af;fill-opacity:1;fill-rule:nonzero;stroke:none"
         id="path30" />
      <path
         d="m 7937.78,5510.53 c -19.97,13.72 -41.08,21.8 -63.35,24.33 21.16,-8.02 42.05,-16.84 63.35,-24.33"
         style="fill:#7989af;fill-opacity:1;fill-rule:nonzero;stroke:none"
         id="path32" />
      <path
         d="m 8825.41,5538.18 c 3.4,9.96 10.05,16.73 19.8,20.5 5.68,-19.38 4.72,-20.39 -19.8,-20.5 z m -613.53,111.13 c -3.97,3.38 -3.09,4.41 2.65,3.06 -0.87,-1.03 -1.76,-2.05 -2.65,-3.06 z m -281.45,-117.62 c -11.75,0.84 -17.19,6.19 -16.27,16 5.8,11.06 40.37,-3.98 16.27,-16 z m -342.77,-60.22 c 13.6,16.36 16.48,16.2 30.83,-1.67 -10.27,0.57 -20.55,1.12 -30.83,1.67 z m 1313.71,107.25 c -8.89,-11.7 -10.86,-10.19 -27.44,3.08 1.32,2.34 2.9,4.39 4.33,6.58 -89.57,37.66 -189.22,64.54 -284.88,81.63 5.72,-19.17 -18.71,-18.23 -29.02,-16.47 -7.68,-8.18 -14.24,-17.21 -19.7,-27.1 -6.57,-4.92 -12.66,-5.26 -18.21,-1.08 -9.93,0.71 -19.84,1.42 -29.75,2.15 -22.38,46.25 43.28,36.86 68.28,40.63 0.09,2.31 0.34,4.55 0.77,6.61 -227.7,34.78 -471.49,-13.12 -691.66,-72.1 -7.61,-12.96 -18.78,-16.02 -33.52,-9.21 -95.26,-26.56 -189.02,-58.1 -281.78,-92.31 -37.01,-14.6 -74.04,-29.2 -110.9,-44.17 88.37,10.21 178.73,11.77 267.49,5.83 67.41,21.91 133.85,49.97 205.38,46.8 2.65,1.81 5.32,1.78 8,-0.12 3.04,-0.15 6.05,0.21 9.02,1.06 -21.3,7.49 -42.19,16.31 -63.35,24.33 -6.8,0.77 -13.71,1.08 -20.72,0.8 7.47,15.91 14.31,15.66 20.55,-0.73 0.06,-0.02 0.12,-0.05 0.17,-0.07 22.27,-2.53 43.38,-10.61 63.35,-24.33 75.26,15.74 445.2,-23.31 480.35,-88.19 -35.34,65.49 -310.76,114.42 -379.81,125.82 101.27,21.42 232.77,50.01 357.5,54.6 0.41,0.16 0.65,0.34 1.12,0.48 0.15,-0.15 0.16,-0.28 0.29,-0.43 82.69,2.92 162.35,-4.74 228.14,-32.2 31.89,-13.31 181.78,-103.83 207.92,-147.8 -18.18,33.87 -95.3,112.69 -122.03,127.39 17.96,-3.77 35.58,-8.78 52.86,-14.99 0.2,-1.72 1.23,-2.06 3.11,-1.01 68.3,-21.94 154.36,-47.24 212.36,-89.35 21.91,-15.9 151.23,-126.19 161.62,-150.46 -6.93,19.84 -80.43,114.2 -100.53,130.44 62.64,-36.52 511.81,-408.91 461.53,-443.66 54.71,20.22 -207.45,347.01 -220.67,359.72 -109.37,105.19 -241.04,179.37 -380.17,237.83"
         style="fill:#7989af;fill-opacity:1;fill-rule:nonzero;stroke:none"
         id="path34" />
      <path
         d="m 8392.92,5594.76 c 6.03,1.8 7.37,4.5 4.31,8.05 -0.47,-0.02 -0.94,-0.03 -1.41,-0.05 -5.08,-1.84 -6.17,-4.49 -2.9,-8"
         style="fill:#7989af;fill-opacity:1;fill-rule:nonzero;stroke:none"
         id="path36" />
      <path
         d="m 6228.79,4566.91 c 9.6,-20.04 19.22,-40.04 29.41,-59.76 3.68,10.45 10.15,19.31 19.44,26.63 27.09,60.17 64.41,114.88 106.82,165.2 20.77,15.61 38.24,35.77 56.91,53.75 -87.05,-47.1 -163.66,-107.45 -212.58,-185.82"
         style="fill:#7989af;fill-opacity:1;fill-rule:nonzero;stroke:none"
         id="path38" />
      <path
         d="m 6879.63,5093.55 c 77.54,46.63 157.32,89.75 238.36,129.92 -43.49,-2.51 -86.95,-8.04 -129.83,-14.6 -123.34,-88.48 -269.7,-205.35 -422.98,-234.91 -30.87,-24.42 -61.06,-49.56 -90.42,-75.82 19.52,-10.76 -10.22,-29.94 -9.33,-8.38 -59.3,-53.78 -115.33,-111.73 -163.62,-175.7 116.3,78.41 226.97,132.37 338.74,217.03 62.09,47.02 128.86,84.72 200.5,115.46 0.49,9.55 8.83,18.05 11.34,4.41 150.05,59.89 339.35,81.97 501.81,75.59 39.6,-25.98 62.93,-26.85 70.02,-2.56 -148.07,76.47 -386.58,-11.53 -544.59,-30.44"
         style="fill:#7989af;fill-opacity:1;fill-rule:nonzero;stroke:none"
         id="path40" />
      <path
         d="m 6849.86,4174.69 c -1.54,2.88 -4.34,5.14 -9.55,6.79 -14.72,4.71 -27.4,18.17 -44.88,9.28 -2.75,2.15 -5.49,4.27 -8.26,6.42 -16.15,-109.48 -33.24,-167.26 -18.32,-277.29 39,-26.29 78.77,-51.22 119.06,-75.28 -28.44,126.87 -66.35,194.84 -38.05,330.08"
         style="fill:#7989af;fill-opacity:1;fill-rule:nonzero;stroke:none"
         id="path42" />
      <path
         d="m 5933.57,4344.26 c -0.97,-2.06 -2.64,-3.54 -4.86,-4.5 -2.95,-1.3 -6.72,-1.85 -10.67,-2.26 -1.42,1.37 -3.06,1.87 -4.98,1.5 -1.9,-4.93 -4.1,-9.84 -7.45,-13.04 100,-263.84 277,-519.33 523.67,-666.59 -230.16,179.61 -412.72,400.53 -495.71,684.89"
         style="fill:#7989af;fill-opacity:1;fill-rule:nonzero;stroke:none"
         id="path44" />
      <path
         d="m 4940.65,6944.33 c 13.96,-3.29 28.06,-5.88 42.28,-7.68 -1.86,-6.61 -3.63,-13.23 -3.91,-19.88 113.13,-7.45 386.15,20.68 472.11,-28.27 -115.99,65.61 -373.2,55.89 -510.48,55.83"
         style="fill:#7989af;fill-opacity:1;fill-rule:nonzero;stroke:none"
         id="path46" />
      <path
         d="m 5855.9,4758.42 c -1.49,9.62 -2.95,19.24 -4.36,28.88 -7.59,-8.63 -5.97,-13.09 4.36,-28.88"
         style="fill:#7989af;fill-opacity:1;fill-rule:nonzero;stroke:none"
         id="path48" />
      <path
         d="m 5850.06,5570.54 c -0.51,12.77 -2.15,25.13 -8.49,36.04 6.34,-10.91 7.98,-23.29 8.49,-36.04"
         style="fill:#7989af;fill-opacity:1;fill-rule:nonzero;stroke:none"
         id="path50" />
      <path
         d="m 7121.62,4419.8 c 1.93,1.63 3.85,3.27 5.94,4.54 -1.96,-1.2 -3.95,-2.73 -5.94,-4.54"
         style="fill:#7989af;fill-opacity:1;fill-rule:nonzero;stroke:none"
         id="path52" />
      <path
         d="m 7371.19,4380.42 c 1.78,1.71 3.44,3.49 5.37,5.11 -1.8,-1.25 -3.59,-3.06 -5.37,-5.11"
         style="fill:#7989af;fill-opacity:1;fill-rule:nonzero;stroke:none"
         id="path54" />
      <path
         d="m 4522.68,3863.37 c -3.82,1.17 -5.65,-0.25 -5.51,-4.27 6.9,-2.1 8.73,-0.69 5.51,4.27"
         style="fill:#7989af;fill-opacity:1;fill-rule:nonzero;stroke:none"
         id="path56" />
      <path
         d="m 5450.63,4576.33 c 1.51,0 3.43,-0.59 4.37,0.12 2.7,2.08 -6.77,10.35 -4.37,-0.12"
         style="fill:#7989af;fill-opacity:1;fill-rule:nonzero;stroke:none"
         id="path58" />
      <path
         d="m 3337.77,4422.87 c 0.38,0.3 0.76,0.62 1.14,0.9 -0.38,-0.29 -0.77,-0.59 -1.14,-0.9"
         style="fill:#7989af;fill-opacity:1;fill-rule:nonzero;stroke:none"
         id="path60" />
      <path
         d="m 5957.89,3398.57 c 0.99,0.89 1.97,1.78 2.88,2.63 -0.77,1.39 -1.39,2.56 -2.03,3.72 -3.17,-1.74 -3.45,-3.84 -0.85,-6.35"
         style="fill:#7989af;fill-opacity:1;fill-rule:nonzero;stroke:none"
         id="path62" />
      <path
         d="m 3341.58,4425.48 c 1.6,0.86 3.22,1.65 4.98,2.1 -1.78,-0.5 -3.42,-1.24 -4.98,-2.1"
         style="fill:#7989af;fill-opacity:1;fill-rule:nonzero;stroke:none"
         id="path64" />
      <path
         d="m 3444.88,3611.9 c -0.33,0.73 -0.68,1.46 -0.99,2.18 0.31,-0.72 0.65,-1.45 0.99,-2.18"
         style="fill:#7989af;fill-opacity:1;fill-rule:nonzero;stroke:none"
         id="path66" />
      <path
         d="m 3441.5,3620.02 c -0.43,1.13 -0.9,2.28 -1.29,3.4 0.39,-1.13 0.86,-2.27 1.29,-3.4"
         style="fill:#7989af;fill-opacity:1;fill-rule:nonzero;stroke:none"
         id="path68" />
      <path
         d="m 4552.52,6077.64 c 0.23,-0.12 0.42,-0.28 0.64,-0.4 1.03,1.14 1.1,1.49 -0.64,0.4"
         style="fill:#7989af;fill-opacity:1;fill-rule:nonzero;stroke:none"
         id="path70" />
      <path
         d="m 8674.38,4753.8 c 0.85,0.07 1.85,-1.53 2.76,-2.37 -4.48,-9.62 -6.1,2.19 -2.76,2.37 z m -2.82,-166.07 c -6.07,5.42 -12.16,10.83 -18.26,16.25 -25.14,-0.48 -95.82,10.51 -19.1,48.95 9.39,-15.2 15.77,-31.51 19.1,-48.95 6.1,-5.42 12.19,-10.83 18.28,-16.25 z m -85.86,13.72 c -3.38,0.54 -3.9,2.03 -1.54,4.5 0.74,0.27 2.02,-0.85 3.05,-1.33 -0.5,-1.05 -1,-2.1 -1.51,-3.17 z m -12.2,-189.71 c -12.33,-1.4 -35.22,12.98 -13.71,14.92 -0.32,0.17 -0.3,0.21 0.39,0.05 -0.15,-0.01 -0.25,-0.04 -0.39,-0.05 2.57,-1.35 34.02,-12.57 13.71,-14.92 z m 40.59,312.03 c 0.02,0.17 0.09,0.28 0.09,0.28 0.41,0.13 0.7,-0.05 1.07,-0.11 -0.27,-0.4 -0.54,-0.81 -0.82,-1.19 -0.09,0.37 -0.23,0.68 -0.34,1.02 -5.01,-6.37 -7.47,-5.55 -7.39,2.45 4.3,4.18 6.2,1.47 7.39,-2.45 z m -208.84,-960.06 c 19.27,-36.01 34.7,-58.57 57.58,-91.5 -15.87,-7.77 -32,-15.27 -47.97,-22.95 -49.18,89.47 -74.02,190 -83.43,290.55 4.61,-44.9 48.74,-131.35 73.82,-176.1 z m -104.33,-43.06 c -13.26,22.74 -6.86,34.65 19.22,35.73 48.92,-13.65 -0.88,-53.46 -19.22,-35.73 z m -29.07,328.19 c -8.14,-3.88 -15.7,20.64 24.26,33.87 40.28,-13.67 -22.78,-33.16 -24.26,-33.87 z m 1.16,-465.69 c -68.44,149.36 -142.42,729.59 31.1,830.19 5.17,-5 3.37,-9.32 -5.29,-12.96 16.73,2.64 24.87,-47.37 -7.14,-41.22 -10.96,6.69 -13.2,15.58 -6.76,26.65 -128.26,-182.63 -58.96,-594.58 27.79,-784.83 -13.14,-6.06 -26.52,-11.84 -39.7,-17.83 z m -106.88,-47.51 c -43.75,68.65 -64.7,136.96 -81.11,215.52 -13.75,-6.49 -24.7,-16.29 -32.31,-30.05 -13.55,16.16 1.92,30.51 2.86,45.77 6.15,1.84 12.32,3.66 18.46,5.47 2.86,-0.87 5.21,-2.26 7.37,-3.84 -12.12,57.89 -6.07,125.94 -1.63,184.08 -8.6,-112.37 63.41,-301.2 134.83,-395.63 -16.13,-7.13 -32.22,-14.28 -48.47,-21.32 z m -132.11,494.62 c -0.93,1.28 -1.58,2.77 -2.34,4.16 1.02,3.31 2.04,6.65 3.05,9.99 21.09,-6.72 10.06,-28.96 -0.71,-14.15 z m 11.29,-545.76 c -25.42,42.76 -55.6,87.41 -72.69,134.35 -6.58,16.59 -12.31,33.45 -17.21,50.59 -3,2.7 -3.85,5.65 -2.54,8.87 -75.76,279.56 6.14,461.88 170.55,690.13 -75.22,-103.87 -128.77,-243.86 -150.17,-383.65 12.89,-6.01 23.93,-14.08 33.12,-24.25 -10.63,-27.17 -21.72,-19.68 -33.3,22.51 -22.01,-164.77 13.98,-345.37 99.09,-487.2 -9.01,-3.72 -17.84,-7.65 -26.85,-11.35 z m -128.86,537.67 c -1.96,1.58 -3.89,3.13 -5.84,4.69 14.43,11.68 4.8,-5 5.84,-4.69 z m 51.93,393.91 c 5.1,5.1 11.59,8.28 19.43,9.54 6.62,0.09 13.23,0.2 19.84,0.29 -6.61,-0.09 -13.22,-0.2 -19.82,-0.29 3.48,-28.8 23.33,-30.67 29.37,-59.37 -17.71,5.18 -32.43,-6.88 -48.98,-8.53 0.07,19.45 0.12,38.9 0.16,58.36 z m 73.87,-39.78 c -0.84,-0.64 57.43,-8.04 -12.16,-38.05 -37.41,2.47 -1.26,28.34 12.16,38.05 z m 15.04,138.06 c -9.97,-14.43 -10.98,-14.43 -20.62,0.01 6.87,0 13.76,-0.01 20.62,-0.01 z m 9.22,-58.65 c -3.29,-6.76 -6.58,-13.53 -9.89,-20.29 -4.69,8.98 1.08,17.32 9.89,20.29 z m 67.58,-38.83 c -0.25,-3.83 0.46,-7.51 1.87,-11.08 -1.41,3.57 -2.12,7.25 -1.87,11.08 z m 7.95,-399.02 c 5.81,-18.97 -77.26,1.34 -48.62,15.42 12.36,-7.63 25.65,-8.75 39.55,-5.71 3.15,-3.18 7.91,-5.9 9.07,-9.71 z m -47.3,387.49 c 1.24,19.86 -0.87,39.28 25.41,41.45 2.54,9.07 5.09,18.17 7.63,27.24 25.48,-7.7 23.81,-30.55 7.47,-51.31 -6.87,2.27 -13.94,3.46 -21.16,3.57 -1.21,-1.53 -1.3,-3.13 -0.24,-4.78 -0.94,-19.83 -22.29,-28.17 -19.11,-16.17 z m 39.26,187.48 c 2.88,3.77 7.24,6.4 10.92,9.55 3.87,-6.4 7.73,-12.82 11.58,-19.22 9.2,0.09 18.38,0.18 27.58,0.25 9.85,1.71 19.36,5.17 28.54,10.49 l 1.07,-1.12 c 7.34,0.39 14.69,0.57 22.02,0.57 3.89,-3.97 5.24,-26.55 -2.03,-21.7 0.19,-13.2 5.6,-24.67 10.94,-36.15 0.76,-1.64 1.52,-3.27 2.27,-4.92 -0.75,1.65 -1.51,3.28 -2.27,4.92 -5.34,11.48 -10.75,22.94 -10.94,36.12 -9.09,1.55 -16.8,5.4 -23.12,11.54 -12.81,-21.98 -21.83,-23.24 -26.15,0.25 -0.11,0 -0.22,0 -0.33,0 -8.92,-1.54 -18.1,-1.66 -27.58,-0.25 -12.06,-18.56 -46.68,-21.91 -22.5,9.67 z m 71.8,-255.65 c -21.48,4.11 -21.48,4.11 -21.78,29.89 4.94,11.68 12.64,13.8 23.09,6.33 0.57,-12.12 0.14,-24.18 -1.31,-36.22 z m 76.43,176.81 c 5.15,-18.56 1.54,-34.83 -10.88,-48.84 -21.97,0.44 -33.58,10.42 -34.84,29.98 -0.34,-0.27 -0.68,-0.55 -1.04,-0.82 l 0.99,1.01 -1.04,-1.01 c -0.09,0.23 -0.21,0.34 -0.3,0.57 1.53,0.44 -67.72,-71.94 -56.74,-3.75 3.4,21.33 49.86,22.03 56.74,3.75 0.49,0.14 0.88,0.34 1.34,0.44 0.03,-0.05 0.03,-0.1 0.03,-0.1 5.99,4.64 11.91,9.33 17.83,13.99 9.29,1.6 18.6,3.18 27.91,4.78 z m 59.2,-468.12 c 30.35,-33.14 -38,-25.14 -27.31,-17.5 8.97,6.37 18.47,11.95 27.31,17.5 z m 6.15,342.93 c -3.26,-4.09 -16.25,19.7 -1.6,23.95 9.53,-2.56 10.06,-10.56 1.6,-23.95 z m -6.74,134.63 c 26.81,4.59 28.43,-15.98 34.23,-37.35 -37.55,-26.16 -48.4,-12.22 -56.69,28.41 5.34,8.36 13.5,9.69 22.46,8.94 z M 7671.23,3465.07 c 9.82,15.54 11.61,15.45 20.39,-1.07 -6.8,0.34 -13.57,0.71 -20.39,1.07 z M 6224.47,4418.3 c -4.12,-1.3 -5.64,-0.04 -4.59,3.79 4.44,1.63 6.03,0.23 4.59,-3.79 z m -71.99,266.14 c -0.19,1.93 -0.47,3.82 -0.8,5.72 -7.24,-1.05 -14.48,-2.15 -21.73,-3.22 7.25,1.07 14.49,2.17 21.73,3.22 -0.38,-1.28 17.83,40.88 31.49,23.56 2.65,-16.41 -7.58,-26.17 -30.69,-29.28 z m 16.96,-117.98 c -8.98,0.04 -12.53,5.23 -10.6,15.58 -7.18,-0.98 -14.74,-1.14 -21.98,-1.99 7.24,0.85 14.8,1.01 21.98,1.99 l 0.34,0.25 c 13.14,0.07 16.54,-5.21 10.26,-15.83 z m -65.59,561.12 c 16.35,9.37 40.75,24.91 31.59,-9.55 -12.96,-4.85 -24.4,-4.71 -31.59,9.55 z m -56.95,-220.75 c 13.88,83.93 -9.22,226.58 13.22,335.91 -1.52,-0.62 -3.02,-1.21 -4.55,-1.83 1.53,0.62 3.03,1.21 4.55,1.83 1.62,10.05 3.79,19.99 6.56,29.82 -8.08,7.59 -17.22,11.38 -27.23,12.75 10.01,-1.37 19.15,-5.16 27.23,-12.75 36.13,150.05 123.79,268.59 211.88,391.77 -156.59,-218.87 -189.6,-504.34 -231.66,-757.5 z m -85.6,-140.87 c -1.46,-3.86 -1.98,-7.93 -1.53,-12.22 -1.42,3.45 -0.86,7.06 1,10.74 0.19,0.5 0.34,0.98 0.53,1.48 z m 50.85,-26.83 c 10.88,-2.1 21.71,-4.32 32.59,-6.23 60.44,-10.61 -52.41,-73.5 -42.03,-62.51 0.02,33.85 -1.07,35.93 9.44,68.74 z m 70.1,-534.18 c 10.82,-0.55 14.63,-57.16 9.67,-63.71 216.17,-452.92 844.16,-715.16 1277.95,-898.14 -74.54,-22.88 -149.96,-44.6 -225.92,-65.61 -461.06,172.24 -963.15,419.38 -1209,869.25 -228.13,417.47 -301.71,1088.11 -84.89,1523.8 -0.51,12.75 -2.15,25.13 -8.49,36.04 6.34,-10.91 7.98,-23.27 8.49,-36.04 18.83,37.82 43.83,73.47 68.18,108.02 15.86,0.23 31.66,-0.73 47.36,-2.88 -164.82,-254.9 -200.83,-586.47 -158.65,-881.93 9.08,10.58 22.72,18.08 40.9,21.73 -8.7,79.2 10.53,519.29 86.42,731.21 -1.69,0 -3.37,0 -5.05,0.01 -5.86,19.27 -0.71,30.65 15.37,34.16 1.09,-0.34 1.95,-0.81 2.76,-1.3 24.8,55.78 54.89,87.91 91.08,80.1 15.19,-3.26 -77.86,-216.48 -83.66,-235.27 -37.94,-122.92 -48.77,-253.3 -50.92,-381.5 -4.81,-285.29 51.94,-582.56 162.75,-845.25 3,5.62 8.23,8.06 15.65,7.31 z m 9.47,276.31 c -1.31,-2.49 -3.43,-4.18 -6.43,-5.02 3,0.84 5.12,2.53 6.43,5.02 z m 141.87,-509.02 c 8.23,-8.11 8.09,-15.99 -0.39,-23.65 8.48,7.66 8.6,15.54 0.39,23.65 z m -45.73,218.54 c 36.1,19.13 64.44,9.92 57.59,-29.64 -12.77,-2.33 -24.84,0.53 -36.25,8.57 -4.41,0.39 -47.8,7.06 -21.34,21.07 z m 292.51,-357.87 c -11.83,4.5 -23.65,9 -35.49,13.53 -3.65,9.48 -7.3,18.97 -10.96,28.47 3.66,-9.5 7.31,-18.99 10.96,-28.47 11.84,-4.53 23.66,-9.03 35.49,-13.53 z m -221.46,306.23 c 5.58,-7.48 11.54,-14.58 17.32,-21.9 0.51,0.71 1.01,1.4 1.5,2.11 -0.17,6.73 -0.29,13.5 -0.29,20.26 3.34,6.77 6.68,13.55 10.02,20.34 -3.34,-6.79 -6.68,-13.57 -10,-20.34 10,-3.54 16.47,-9.91 19.42,-19.1 -1.88,-7.43 -3.74,-14.83 -5.61,-22.24 175.49,-212.71 394.05,-380.01 616.52,-539.43 0.73,1.35 1.56,2.81 2.54,4.48 2.95,-3.25 4.85,-6.95 6.28,-10.82 95.8,-69.01 200.76,-116.93 307.67,-165.7 7.01,11.86 11.9,24.75 14.27,38.89 -20.4,-1.32 -38.04,4.05 -52.92,16.14 17.67,-5.37 35.31,-10.79 52.95,-16.14 -2.4,-14.14 -7.29,-27.03 -14.3,-38.89 92.32,-42.23 192.3,-74.23 291.41,-97.33 -29.09,-9.55 -58.45,-18.76 -87.77,-28 -433.86,137.76 -865.85,459.1 -1142.31,820.23 -5.59,2.77 -11.16,5.54 -16.74,8.3 0.39,4.23 0.8,8.43 1.19,12.66 -2.65,3.7 -5.21,7.45 -7.79,11.2 -6.78,4.43 -12.46,10.37 -18.83,15.45 6.37,-5.08 12.07,-11.02 18.83,-15.45 6.05,-8.75 -18.68,45.38 -3.36,25.28 z m 189.35,-116.64 c 8.58,-5.97 3.39,-8.44 -2.69,-10.72 0.89,3.59 1.81,7.15 2.69,10.72 z m 201.89,-191.3 c -9.33,-6.84 -19.24,-10.24 -29.71,-10.24 8.78,6.69 18.86,9.55 29.71,10.24 z m 38.74,-29.16 c 0.68,2.05 28.56,29.01 28.56,1.02 -9.12,-7.63 -18.5,-8.13 -28.17,-1.48 -2.15,-1.08 -4.3,-2.15 -6.45,-3.23 2.01,1.22 4.05,2.45 6.06,3.69 z m 41.74,-30.56 c 0.64,-1.17 1.26,-2.33 2.05,-3.73 -0.92,-0.84 -1.91,-1.73 -2.89,-2.62 -2.6,2.51 -2.33,4.64 0.84,6.35 z m 112.19,-110.47 c 8.34,31.76 3.88,-33.75 -0.5,1.21 0,0 0.55,-1.32 0.5,-1.21 z m 61.15,-38.35 c 16.05,9.79 27.84,7.82 35.36,-5.85 1.49,-22.19 -44.61,-3.22 -35.36,5.85 z m -84.32,-405.29 c 14.17,11.88 9.23,13.51 26.19,0.71 -16.66,-14.47 -11.56,-12.62 -26.17,-0.73 v 0.02 z m 33.06,-114.7 -24.16,12.55 c -8.32,-7.09 -16.74,6.86 -14.17,9.64 -181.8,109.19 -397.97,296.81 -523.62,469.42 129.9,-178.6 433.36,-357.67 633.99,-474.33 -23.91,-5.94 -48.01,-11.52 -72.04,-17.28 z m -404.14,248.18 c 10.71,-3.24 15.69,-9.87 14.98,-19.92 -6.53,1.16 -13.06,2.35 -19.6,3.54 -0.71,6.15 -4.22,13.89 4.62,16.38 z M 5972.98,3895 c -11.82,-8.36 -20.14,-8.25 -25,0.34 -2.34,12 31.65,13.46 25,-0.34 z m -132.14,309.04 c 4.96,3.79 10.4,-2.15 3.52,-3.14 -1.29,1.17 -2.4,2.15 -3.52,3.14 z m 831.87,-1142.61 c -113.49,84.09 -225.29,176.03 -330.76,269.91 -15.31,-11.5 -46.93,12.5 -28.97,25.36 -36.77,32.16 -74.59,62.99 -110.25,96.42 -1.25,-0.54 -2.57,-1.15 -3.96,-1.82 -4.16,-2.03 -8.98,-4.69 -14.73,-7.98 l -2.81,-0.17 2.79,0.17 c 5.77,3.29 10.59,5.95 14.75,7.98 1.39,0.67 2.71,1.28 3.96,1.82 -7.69,7.22 -15.4,14.49 -22.96,21.89 -0.91,-7.95 -1.82,-15.88 -2.72,-23.83 -12.07,4.13 -24.25,3.38 -36.44,0.82 -0.85,24.27 -6.18,47.53 -15.98,69.77 -9.3,10.78 -12.14,14.3 -10.13,21.32 -38.52,43.49 -77.04,87.59 -112.7,133.48 -6.55,-13.18 -11.51,-3.15 -1.15,1.47 -216.84,280.92 -399.62,666.27 -386.89,1028.99 -14.19,-409.02 287.76,-881.41 576.11,-1166.25 4.93,-1.96 8.24,-5.37 10.15,-10.05 25.2,-25.16 49.91,-50.72 75.46,-75.55 19.99,12.36 26.46,5.57 20.75,-15.8 -1.19,-0.43 -2.35,-0.77 -3.52,-1.14 24.5,-23.72 46.07,-50.3 70.4,-74.36 0.6,0.02 1.2,0.16 1.81,0.13 0.14,0.26 0.28,0.51 0.43,0.76 l 0.65,-0.71 c -0.37,0.03 -0.71,-0.05 -1.08,-0.05 -0.25,-0.41 -0.48,-0.84 -0.72,-1.25 30.8,-30.35 62.25,-60.08 93.76,-89.67 5.58,2.74 8.8,0.59 9.64,-6.47 -0.64,-0.16 -1.37,-0.41 -2.05,-0.59 75.15,-69.2 147.69,-138.93 230.17,-199.46 -7.68,-1.72 -15.31,-3.48 -23.01,-5.14 z m -709.33,597.2 c 10.9,-2.56 11.15,-10.71 10.23,-19.49 -10.13,2.97 -10.05,11.29 -10.23,19.49 z m -50.99,8.99 c -0.29,0.79 0.8,2.05 1.3,3.13 3.44,-0.55 3.99,-2.11 1.68,-4.71 -1.05,0.52 -2.69,0.8 -2.98,1.58 z m -46.89,118.67 c 1.65,2.46 4.11,3.93 7.41,4.36 25.2,-11.63 -16.93,-33.13 -7.41,-4.36 z m -96.1,157.64 c 17.48,15.35 30.87,15.4 40.21,0.16 -21.35,-65.82 -63.98,-9.08 -40.21,-0.16 z m -294.11,677.85 v -0.02 c -13.02,-5.53 -10.43,12.78 0,0.02 z m 406.53,-1088.45 c -7.86,2.15 -14.06,6.7 -17.91,14.63 l -1.58,1.09 c -6.98,-2.79 -12.67,-7.06 -17.64,-12.38 4.98,5.32 10.64,9.59 17.63,12.38 h 0.01 c 0.01,0 0.01,0 0.01,0 l 1.57,-1.09 c 0.43,0.09 0.8,0.09 1.21,0.16 -82.81,74.43 -144.2,158.48 -208.03,248.89 -12.77,-21.3 -26.95,-27.45 -42.56,-18.4 -14.74,11.01 16.6,40.4 22.81,47.05 -172.99,254.95 -256.96,587.64 -243.86,895.8 5.76,135.66 31.54,559.76 145.46,671.46 -37.9,-36.56 -55.03,-163.57 -68.4,-225.42 12.02,1.35 23.05,6.2 33.15,14.52 -16.93,24.65 34.65,26.14 17.21,-1.26 -4.85,-28.7 -17.84,-74.84 -53.79,-28.49 -22,-110.93 -32.13,-261.76 -26.64,-372.32 22.96,7.81 35.12,15.97 58.82,30.44 -4.59,9.89 -2.68,20.02 5.81,30.39 35.37,-0.61 18.22,-95.98 -5.35,-103.57 -19.75,-6.33 -30.61,27.24 -58.17,23.72 14.81,-226.06 40.61,-419.73 123.62,-634.55 2.18,1.65 4.72,3.45 7.94,5.65 0,-8.62 0,-17.24 0,-25.85 75.81,-190.94 204.77,-345.12 343.87,-493.44 15.2,5.03 19.24,-12.17 20.96,-23.44 90.52,-106.98 207.66,-188.61 310.77,-282.78 69.37,-63.4 194.48,-179.05 257.75,-196.26 -224.26,60.99 -456.14,273.05 -624.67,423.07 z m 586.7,-513.86 c -218.68,125.32 -465.2,276.7 -605.67,495.56 43.56,-67.92 210.91,-183.74 289.41,-242.68 112.27,-84.3 226.33,-157.25 332.68,-249.78 -5.46,-1.07 -10.97,-2.05 -16.42,-3.1 z M 5396.39,4122.2 c 23.74,-1.56 35.07,-16.07 39.46,-37.84 -29.67,-3.09 -42.82,9.53 -39.46,37.84 z m 41.93,-282.6 c 71.87,-171.57 161.52,-335.88 254.81,-496.72 13.3,2.67 33.49,-49.64 34.48,-56.47 -0.58,0.18 -1.16,0.32 -1.74,0.5 23.82,-40.61 49.52,-80.03 73.66,-120.41 5.92,16.27 37.34,17.25 40.83,-0.68 8.78,-13.01 9.09,-58.92 0.69,-69.66 35.77,-54.91 73.83,-109.08 112.68,-161.79 -11.95,-1.66 -23.88,-3.34 -35.85,-4.95 -20.05,28.85 -72.15,122.47 -96.6,162.56 -15.13,-39.17 -40.23,3.22 -18.56,26.83 -0.04,0.29 -0.11,0.59 -0.16,0.91 -78.63,108.48 -157.45,218.7 -228.05,332.67 -4.35,-3.22 -8.59,-6.33 -12.33,-9.6 -19.25,7.2 -20.55,19.38 -3.89,36.54 -125.69,211.23 -215.82,463.55 -255.38,705.78 -36.05,17.97 -33.09,42.69 -35.66,82.16 6.79,3.32 13.63,6.63 20.45,9.94 -20.35,143.1 -35.04,298.57 -13.27,442.29 -38.47,-257.57 58.51,-627.21 163.89,-879.9 z m 191,-539.11 h 0.02 c 3.86,-7.25 7.73,-14.47 11.59,-21.72 -3.86,7.25 -7.73,14.49 -11.61,21.72 z m -29.81,80.83 c -6.48,8.77 -3.42,10.21 5.37,5.28 -1.81,-1.79 -3.6,-3.52 -5.37,-5.28 z m -118.71,228.34 3.11,2.28 0.25,-3.88 z m -224.74,1166.65 c -115.49,-85.1 50.07,28.16 -59.48,29.57 0,0 -0.46,0.44 -0.95,0.92 -1.64,0.13 -3.23,0.29 -4.85,0.43 l 3.24,1.1 c 0,0 0.84,-0.8 1.57,-1.5 2.94,0.12 97.55,-3.16 60.47,-30.52 z m -25.8,-174.75 c -0.47,-1.39 -29.09,-13.96 -5.59,27.54 -20.28,2.37 -29.55,11.68 -27.91,27.9 16.57,14.51 25.69,-14.17 27.13,-22.42 8.06,-10.65 10.19,-21.64 6.37,-33.02 z m -35.3,-9.58 1.57,3.29 2.22,-3.06 z m -11,433.31 c -27.69,-1.05 0.65,17.85 11.67,20.18 -2.27,-6.65 -4.54,-13.3 -6.77,-19.95 -1.63,0 -3.27,-0.16 -4.9,-0.23 z m -16.72,-303.32 c -6.52,-16.73 -17.44,1.07 -16.83,11.22 1.05,17.46 21.62,1.1 16.83,-11.22 z m 262.25,625.55 c -67.22,-105.15 -175.18,-386.88 -177.2,-496.93 3.57,200.25 74.66,332.87 177.2,496.93 z m 87.69,-351.27 c 2.88,5.87 7.31,8.11 13.66,5.89 -4.54,-1.96 -9.11,-3.93 -13.66,-5.89 z m 1.39,-361.03 c 7.23,13.46 14.22,12.55 20.98,-2.76 -9.04,-16.32 -16.03,-15.41 -20.98,2.76 z m 54.57,-355.93 c 0,-13.09 0,-26.19 0,-39.29 -21.38,17.74 -21.38,22.06 0,39.29 z m -8.97,126.76 c -3.25,-17.8 -18.24,-18 -30.33,-18.92 l -0.16,-0.39 c -0.12,-0.02 -0.22,-0.04 -0.32,-0.09 -1.76,-7.29 -17.23,-46.25 -24.9,-15.9 3.57,11.54 11.89,16.84 24.9,15.9 0.02,0.16 0.02,0.3 0.07,0.43 l 0.25,-0.34 -0.25,0.37 0.41,0.02 c 7.11,14.08 16.52,21.12 28.31,21.12 l -0.02,0.02 c 3.65,2.83 7.34,5.65 11.01,8.46 0,-3.27 0,-6.54 0,-9.83 -2.98,-0.14 -5.98,-0.41 -8.97,-0.85 z m -5.58,248.78 c 0.43,0.16 0.86,0.25 1.3,0.41 -6.19,8.41 -1.94,14.13 13.25,26.56 0,-7.68 0,-15.34 0,-23.02 2.54,0.44 5.04,0.7 7.47,0.74 2.43,0.04 4.8,-0.15 7.1,-0.6 -2.3,0.45 -4.67,0.64 -7.1,0.6 -2.43,-0.04 -4.92,-0.3 -7.47,-0.74 0,-5.42 0,-10.85 0,-16.27 -6.37,5.21 -10.64,9.19 -13.25,12.73 -0.44,-0.16 -0.85,-0.27 -1.28,-0.41 -0.64,-2.97 -1.26,-5.97 -1.8,-8.94 -26.56,6.72 -17.38,35.99 1.78,8.94 z m 2.04,565.26 c 0.06,-3.22 0.54,-6.51 0.13,-9.67 -4.23,-30.53 -15.56,-11.19 -19.47,0.03 6.44,3.22 12.89,6.44 19.34,9.64 z m 20.85,-69.72 c -18.84,-8.09 -28.2,-7.54 -25.06,17.2 19.58,1.28 19.58,1.28 25.06,-17.2 z m 18.93,-1030.78 c -9.71,-10.83 -18.67,-12.04 -26.87,-3.65 4.66,5.46 24.19,19.17 26.87,3.65 z m 77.27,940.62 c -5.08,-12.22 -15.91,-15.4 -27.45,-17.43 4.05,13.34 11.45,36.86 27.45,17.43 z m -88.08,-27.7 c 5.67,5.21 10.99,8.1 16.08,9.31 9.72,56.14 6.06,115.43 19.2,172.35 -10.58,-3.84 -16.08,2.97 -16.54,20.41 -0.98,5.03 -1.99,10.08 -2.99,15.13 7.99,0.05 16.02,0.09 24.02,0.13 -0.12,-0.31 -0.33,-0.5 -0.44,-0.82 0.57,0.05 1.15,0.09 1.71,0.12 14.89,111.79 90.2,203.61 124.32,309.92 -35.69,-110.1 -82.64,-267.64 -47.69,-358.44 -12.02,-4.27 -27,-5.53 -37.37,3.4 -14.94,-55.05 -27.03,-110.58 -40.74,-166.96 6.4,-3.58 12.64,-8.34 18.93,-12.66 -0.65,-17.89 -8.87,-28.24 -24.69,-31.06 -6.29,-47.51 3.29,-98.42 -5.19,-145 1.58,8.67 -19.67,109.65 -20.51,140.69 -11.07,11.1 -13.77,25.61 -8.1,43.48 z m 168.91,689.45 c -12.12,69.95 106.9,-70.34 -21.4,-25.76 11.64,7.59 24,10.74 21.4,25.76 z m 75.88,-9.24 c 7.46,18.06 36.68,-11.99 4.62,-20.1 0.44,-0.33 0.67,-0.71 1.13,-1.03 l -2.19,0.66 c 0.4,0.09 0.68,0.27 1.06,0.37 -6.78,5.28 -7.92,12.11 -4.62,20.1 z m 307.56,-474.37 c -0.71,0.64 -0.09,2.74 -0.09,4.25 10.94,4.05 2.94,-6.83 0.09,-4.25 z M 5683.2,2901.16 c -109.85,156.84 -251.17,333.85 -325.33,510.11 20.34,-48.26 134.58,-163.18 177.43,-221.71 69.82,-95.39 143.74,-181.8 208.39,-281.66 -20.13,-2.31 -40.31,-4.55 -60.49,-6.74 z m -150.82,-15.27 c -137.59,228.26 -299.12,435.21 -410.09,679.14 -16.46,-20.73 -44.38,-7.2 -64.01,0.11 4.63,15.08 9.25,31.45 25.86,38.94 1.95,8.48 3.71,17.12 9.28,22.36 -5.57,-5.24 -7.33,-13.88 -9.28,-22.36 2.83,-18.58 14.86,-30.07 36.07,-34.48 -50.64,111.11 -85.29,235.54 -119.02,352.85 -6.27,4.01 -7.42,8.02 -4.04,14.78 -19.55,72.21 -33.97,144.75 -46.51,218.42 -8.8,6.36 -9.9,12.55 -3.32,18.59 -19.45,133.96 -34.84,272.51 -25.89,408.03 -6.39,1.21 -29.63,10.4 -24.36,21.19 7.5,9.87 16.71,14.78 27.61,14.69 0.87,7.43 11.86,5.83 11.68,-1.85 11.56,-1.32 19.03,-7.52 22.46,-18.62 -7.68,-5.47 -15.38,-10.95 -23.08,-16.42 -0.48,-55.3 -1.19,-112.27 5.62,-167.18 14.95,-10.24 16.14,-19.72 3.54,-28.46 0.3,-2.24 0.6,-4.45 0.92,-6.69 6.06,-3.5 6.6,-7.59 1.66,-12.27 19.36,-143.15 47.44,-277.78 79.14,-417.7 5.28,-0.44 10.59,-0.87 15.86,-1.33 0.14,-2.9 0.73,-5.69 1.81,-8.41 -3.16,-4.8 -8.14,-7.11 -13.25,-9.26 90.68,-371.67 328.04,-718.37 523.41,-1041.94 -7.36,-0.71 -14.71,-1.44 -22.07,-2.13 z m -382.85,534.14 c 5.37,28.02 26.46,-3.13 5.26,-12.09 -4.88,2.69 -6.16,7.47 -5.26,12.09 z m 7.05,-83.69 c 0.38,-7.38 0.76,-14.77 1.13,-22.17 7.21,-6.77 15.63,-12.45 17.07,-12.38 -6.61,-0.32 -12.44,3.93 -17.03,11.63 -0.02,0.25 -0.02,0.5 -0.04,0.75 -10,9.38 -17.69,20.88 -1.13,22.17 z m -25.12,75.44 3.19,-0.96 -2.19,-2.58 z m -112.92,299.16 c 7.86,1.54 15.19,4.53 21.79,9.58 -0.45,8.06 1.31,14.67 5.35,19.77 -4.04,-5.1 -5.8,-11.71 -5.35,-19.77 -6.6,-5.05 -13.93,-8.04 -21.79,-9.58 z m -61.27,183.99 c 4.51,4.62 7.81,4.57 9.96,-0.18 -8.48,-3.77 -5.92,-4.73 -9.96,0.18 z m -53.38,1.19 c 1.25,2.17 3.31,3.47 6.17,3.86 5.34,-5.82 4.24,-9.69 -3.3,-11.54 -1.1,2.58 -3.22,5.3 -2.87,7.68 z m 502.94,-1021.15 c -106.22,205.69 -280.62,363.65 -396.89,565.74 -117.21,203.71 -198.15,461.26 -232.99,693.56 -61.97,106.72 -40.8,344.68 4.11,498.57 0.07,0.24 0.14,0.48 0.21,0.72 1.87,6.4 3.78,12.69 5.73,18.77 0.17,0.53 0.33,1.04 0.5,1.57 6.92,21.42 14.3,40.83 21.93,57.49 -8.32,-18.82 -15.59,-38 -21.93,-57.49 -0.17,-0.53 -0.33,-1.04 -0.5,-1.57 -2,-6.22 -3.91,-12.48 -5.73,-18.77 -0.07,-0.23 -0.14,-0.48 -0.21,-0.72 -114.54,-399.57 156.26,-926.35 331.28,-1268.48 -0.56,18.31 29.81,-2.63 8.05,-10.67 -1.5,0.66 -2.71,1.48 -3.79,2.37 66.36,-130.07 164.69,-237.52 240.59,-361.07 1.85,0.68 3.63,1.47 4.67,2.79 -1.04,-1.32 -2.82,-2.11 -4.67,-2.79 27.15,-44.2 60.45,-99.11 73.84,-118.06 -8.05,-0.66 -16.14,-1.3 -24.2,-1.96 z m -78.82,94.34 c -0.58,-1.88 -4.76,-2.65 -7.23,-3.91 -23.47,6.26 13.35,24.45 7.23,3.91 z m -194.05,121.05 0.53,-1.21 c 8.32,31.74 3.86,-33.73 -0.53,1.21 z m -111.67,109.25 c 0.63,-1.16 1.26,-2.32 2.03,-3.72 -0.92,-0.85 -1.9,-1.72 -2.88,-2.61 -0.64,1.17 -1.88,2.4 -1.74,3.48 0.11,1.05 1.67,1.92 2.59,2.85 z m -7.52,175.49 c -0.79,4.09 -2.2,8.07 -2.08,11.98 0.13,4.09 14.78,-7.75 2.08,-11.98 z m -5.67,-143.88 c -9.12,-7.66 -18.51,-8.16 -28.18,-1.51 -2.15,-1.07 -4.3,-2.15 -6.45,-3.22 2.01,1.23 4.05,2.45 6.06,3.68 0.68,2.06 28.57,29.02 28.57,1.05 z m 1.16,77.68 c -1.3,-9.14 -1.96,-18.42 -4.16,-27.34 -8.59,-34.87 -25.03,12.39 -25.46,16.55 7.39,6.74 9.95,15.33 9.67,25.03 -10.16,6.73 -20.66,12.94 -31.58,18.48 12.91,1.17 22.78,-6.95 31.58,-18.4 0,-0.02 0,-0.05 0,-0.08 6.8,-4.5 13.49,-9.2 19.95,-14.24 z m 277.85,-442.86 c -26.31,50.98 -73.02,112.45 -116.37,150.89 0.55,0 1.07,0.02 1.62,0.02 -73.54,84.21 -173.93,150.58 -252.5,231.68 -2.93,0.3 -5.85,0.46 -8.77,0.46 1.44,1.44 3.17,2.54 5.19,3.29 -233.98,245.64 -314.35,648.61 -353.12,972.61 -18.97,158.3 -22.36,292.77 -0.51,451.85 27.19,197.99 118.22,345.8 170.41,534.36 -58.02,-202.18 -122.28,-495.93 -103.71,-736.86 4.14,-2.65 8.28,-5.3 12.4,-7.95 1.55,0.38 3.32,0.43 4.59,1.25 -1.27,-0.82 -3.04,-0.87 -4.59,-1.25 -3.06,-3.59 -5.51,-11.36 -11.16,-8.42 19,-226.94 3.7,-482.74 81.56,-700.18 6.56,1.53 13.12,3.09 19.66,4.62 7.27,-6.15 14.55,-12.23 21.84,-18.33 2.83,0.64 5.64,1.39 8.42,2.33 3.12,5.03 6.26,10.08 9.41,15.06 0,0 0,0.02 -0.02,0.02 l 0.02,0.02 c 6.51,-3.47 13.05,-6.92 19.59,-10.39 3.86,-7.22 7.73,-14.47 11.6,-21.71 -10.78,-2.06 -17.3,-7.86 -17.17,-19.54 20,-26.53 -12.22,-61.13 -39.21,-40.59 44.04,-138.39 104.21,-295.57 194.07,-410 0,0 0.3,0.05 0.44,0.05 -0.1,-0.09 -0.19,-0.14 -0.28,-0.25 97.4,-124.09 314.89,-233.42 356.32,-392.39 -3.25,-0.23 -6.49,-0.43 -9.73,-0.65 z m -362.27,246.32 c -2.97,-40.54 -6.88,37.57 0,0 z m -340.7,771.05 c 6.23,1.15 12.56,1.85 15.99,-5.87 -3.75,-34.1 -45.25,0.55 -15.99,5.87 z m 372.01,-909.28 c -303.56,283.33 -472.32,798.42 -470.39,1202.8 -1.91,-401.89 270.84,-872.67 484.45,-1215.33 -4.71,4.09 -9.41,8.19 -14.06,12.53 z m -93.4,-97.08 c -5.55,6.07 -4.3,10.15 3.71,12.15 5.67,-6.12 4.43,-10.19 -3.71,-12.15 z m -45.49,-4.09 c -16.74,1.55 -22.52,9.34 -17.33,23.38 -0.66,0.09 -1.3,0.15 -1.97,0.25 1.54,10.88 19.63,51.42 38.17,18.9 4.43,-18.81 -1.86,-32.98 -18.87,-42.53 z m -63.84,220.62 c -13.13,7.63 -22.23,19.58 -13.02,36.56 29.71,16.53 46.04,-23.15 49.75,-49.04 -12.34,4 -25.76,6.1 -36.73,12.48 z m 9.62,-25.32 c 1.33,-1.12 2.5,-3.36 3.75,-4.83 -1.28,1.49 -2.42,3.71 -3.75,4.83 z m -279.71,1572.93 c 12.02,0 16.43,-7.21 17.02,-18.01 -3.52,-0.85 -7.03,-1.72 -10.53,-2.58 -2.93,1.16 -5.9,2.16 -8.94,3.01 0.83,5.85 1.63,11.73 2.45,17.58 z m -42.38,129.32 c -9.84,-0.11 -19.68,-0.23 -29.52,-0.34 9.65,13.59 12.51,15.99 21.79,7.81 -2.09,12.55 -2.68,25.14 -1.79,37.82 -6.36,5.69 -9.21,13.72 -9.8,23.24 3.08,-1.23 5.67,-2.79 7.9,-4.57 -32.85,159.29 96.76,327 178.65,445.36 -55.08,-79.21 -115.32,-256.36 -137.76,-350.66 -3.29,-13.43 -30.85,-156.9 -31.24,-156.88 0.59,-0.59 1.19,-1.19 1.77,-1.78 z m 295.32,471.54 c -7.76,0.39 -15.37,2.08 -22.54,5.1 z m 4.77,-657.68 c -34.51,-15.58 -58.8,-34.53 -98.15,-30.96 -0.04,22.97 -0.1,45.96 -0.14,68.92 35.79,0.59 62.82,0.48 98.01,-8.79 0.1,-9.72 0.19,-19.45 0.28,-29.17 z m 24.75,808.99 c 1.67,2.49 4.13,3.95 7.41,4.39 25.19,-11.64 -16.91,-33.16 -7.41,-4.39 z m 48.22,-115.54 c 3.41,-0.53 3.97,-2.08 1.67,-4.69 -3.44,0.55 -3.98,2.1 -1.67,4.69 z m 5.42,-987.26 c 0.36,-0.98 -0.66,-2.47 -1.07,-3.73 -8.63,-0.52 -0.61,8.18 1.07,3.73 z m 34.5,307.82 c 10.97,2.02 23.45,-8.55 22.85,-23.13 -4.31,-7.63 -37.57,-44.99 -49.79,-26.6 -11.97,22.03 -2.99,38.61 26.94,49.73 z m 38.06,386.67 0.88,0.62 h 0.03 z m 2.73,-587.29 c -1.54,1.02 -3.1,1.92 -4.69,2.69 -11.09,5.44 -23.02,4.93 -35.82,-1.55 -0.64,-2.95 -1.26,-5.94 -1.83,-8.91 -26.56,6.72 -17.33,35.99 1.8,8.94 12.82,6.45 24.76,6.96 35.85,1.52 1.59,-0.77 3.15,-1.67 4.69,-2.69 z m 79.99,848.89 c -27.41,-49.59 -46.12,-113.7 -71.28,-167.47 29.53,36.47 83.03,-37.62 31.79,-63.1 -32.36,-16.11 -65.26,8.6 -35.31,45.07 0.48,7.13 0.85,11.65 1.87,14.83 -30.96,-56.7 -35.6,-121.25 -61.76,-177.36 -6.68,-14.28 -14.26,62.66 -13.95,69.56 4.43,130.17 93.24,178.39 148.64,278.47 z m -41.12,-579.16 c 17.9,3.91 41.3,-14.97 38.72,-33.14 -26.28,-14.74 -78.1,24.55 -38.72,33.14 z m 14.61,121.65 2.54,2.83 1.19,-3.45 z m 15.7,-19.34 c 4.18,-4.41 8.34,-8.82 12.5,-13.23 -3.77,-15.45 -13.62,-21.18 -28.96,-18.24 -3.47,11.06 -4.9,22.08 0.71,32.93 5.26,-0.48 10.5,-0.98 15.75,-1.46 z m -34.63,114.7 c 6.43,4.78 11.09,-0.59 14.36,-6.33 66.8,-30.33 -28.24,-65.8 -37.69,-41.28 1.65,14.11 9.97,24.55 24.94,31.36 -1.95,5.37 -8.17,11.36 -1.61,16.25 z m 41.97,-402.85 c -5.54,-1.62 -33.39,-2.58 -32.88,9.81 1.07,28.04 59.45,-1.81 32.88,-9.81 z m -12.18,-125.32 0.63,3.77 2.86,-2.56 z m 1.16,-42.37 c 0.68,2.76 2.88,5.14 4.41,7.7 9.39,-7.63 11.67,-27.7 -0.23,-34.53 -5.66,-3.2 -3.45,29.73 -4.18,26.83 z m 20.91,920 c 3.89,-8.79 5.71,-7.01 -3.89,-12.41 -1.66,4.11 -6.41,15.32 3.89,12.41 z m 11.29,-871.67 c -2.52,-11.15 -6.82,-12.87 -12.82,-5.14 2.7,11.18 7,12.89 12.82,5.14 z m -3.26,27.22 2.83,-2.51 -3.46,-1.22 z m 33.79,-16.75 c -0.41,-1.49 -0.82,-2.99 -1.24,-4.5 0.38,1.53 0.77,3.06 1.15,4.57 z m -5.1,31.88 c 0.74,2.12 4.78,3.13 7.32,4.64 11.19,-2.04 17.16,-22.7 5.1,-29.09 -11.07,-1.4 -15.21,6.76 -12.42,24.45 z m 41.64,-245.76 c 10.08,-11.98 13.55,-25.39 8.96,-40.61 -11.93,2.22 -23.86,4.41 -35.79,6.63 -0.68,12.77 -2.72,25.25 -8.18,36.97 5.54,0.16 11.04,0.32 16.55,0.48 6.14,-1.16 12.32,-2.31 18.46,-3.47 z m 37.99,-115.06 0.27,-0.3 c -19.66,-43.76 -20.25,-5 -22.22,-5.71 7.11,2.56 14.58,4.11 21.95,6.01 z m 45.15,-53.48 c -16.04,-2.24 -32.17,-3.98 -48.26,-5.94 16.06,1.96 32.19,3.7 48.26,5.94 z m 5.6,-310.82 c 12.82,0.07 26.33,2.58 35.49,-10.13 5.91,0.12 6.7,-2.76 2.35,-8.63 h -0.02 c -0.66,-23.72 -10.33,-44.15 -29,-61.32 -10.94,25.8 -12.57,52.66 -8.82,80.08 z m 19.19,30.07 c -3.63,-0.75 -7.29,-1.5 -10.92,-2.3 2.97,3.88 6.68,4.36 10.92,2.3 z m 191.44,-263.42 c 7.39,-3.82 12.21,-9.64 15.68,-16.89 -19.1,-6.49 -37.89,-4.8 -56.42,2.42 16.75,23.41 20.84,24.73 40.74,14.47 z M 4002.85,2857.49 c -0.1,0.96 -0.37,1.94 -0.99,3.08 -1.8,1.14 -52.26,40.91 -103.13,81.06 -1.7,-1.74 -3.41,-3.48 -5.12,-5.21 0.28,2.97 1.12,5.39 2.43,7.36 -59.89,47.24 -117.1,99.2 -177.39,145.64 -5.49,0.96 -8.98,3.63 -10.53,8.02 -179.84,136.29 -312.56,329.92 -408.22,531.49 -62.66,131.99 -203.18,409.77 -145.03,551.07 -34.71,-85.65 45.52,-253.42 78.26,-334.25 67.46,-166.57 146.23,-327.22 258.53,-468.8 14.09,-5.67 21.29,-15.22 21.58,-28.66 56.48,-76.85 138.38,-149.22 211.6,-211.5 0.6,3.13 0.71,6.4 0.04,9.85 22.44,-1.78 34.34,-10.72 25.56,-33.82 97.67,-96.83 223.02,-175.47 331.54,-259.49 -26.41,1.27 -52.78,2.7 -79.13,4.16 z m -120.97,17.18 c -21.59,-2.97 1.54,26.67 5.9,5.12 -1.94,-1.78 -3.74,-4.82 -5.9,-5.12 z m -17.8,50.39 c -15.01,11.88 -22.81,27.45 -23.36,46.69 24.62,-5.49 24.01,-27.22 23.36,-46.69 z m -48.01,-42.98 c -15.03,-0.21 -16.62,3.04 -4.7,9.73 14.96,-0.76 16.52,-4 4.7,-9.73 z m -443.28,539.11 c 9.1,7.48 14.75,6.36 16.94,-3.36 -8.55,-6.16 -14.19,-5.05 -16.94,3.36 z m -76.62,93.88 c 0.37,-7.38 0.73,-14.77 1.11,-22.16 7.21,-6.77 15.63,-12.45 17.08,-12.37 -6.63,-0.34 -12.46,3.91 -17.05,11.63 -0.01,0.25 -0.02,0.5 -0.03,0.74 -9.99,9.38 -17.67,20.87 -1.11,22.16 z m 404.77,-636.24 c -153.52,217.58 -306.73,425.58 -443.69,655.3 -2.51,1.71 -5.35,6.7 -5.21,9.78 -8.66,18.72 -7.13,30.51 2.81,7.82 9.43,9.46 21.44,-14.47 10.05,-17.87 148.46,-228.62 332.4,-426.25 471.66,-658 -11.87,0.96 -23.77,1.96 -35.62,2.97 z m -427.4,390.26 c 0,0 0.53,-1.33 0.5,-1.21 8.37,31.83 3.67,-33.78 -0.5,1.21 z m -62.5,437.51 c 0,0 13.1,25.09 18.27,0.73 -2.88,-4.52 -5.77,-9.05 -8.65,-13.53 -3.34,4.21 -7.22,8.11 -9.62,12.8 z m -31.69,-254.67 7.88,-1.28 -5.35,-6.01 z m -50.94,724.89 c -25.64,-15.95 -77.49,5.67 -36.63,24.72 16.27,-2.8 28.49,-11.03 36.63,-24.72 z m 260.96,-1266.36 c -8.46,10.12 -21.15,25.53 -33.24,40.19 -12.22,-22.89 -24.67,0.67 -24.2,11.39 -20.43,11.88 -58.82,33.36 -38.43,62.38 -80.87,127.73 -131.43,287.22 -228.12,403.91 -4.57,-0.35 -9.14,-0.51 -13.74,-0.51 2.66,2.65 5.9,4.5 9.77,5.55 -40.66,55.19 13.47,-6.85 6.17,2.29 4.43,1.28 9.02,2.1 13.8,2.4 -2.95,-3.29 -6.24,-5.58 -9.72,-7.36 11.91,-13.58 23.46,-27.7 34.44,-42.03 -40.33,162.12 -91.28,300.54 -94.81,473.31 -2.13,103.52 5.83,520.15 159.55,500.13 -169.12,18.05 -114.07,-518.83 -101.98,-613.55 13.21,-13.83 15.81,-27.81 7.81,-41.98 19.29,-71.46 43.43,-142.88 65.67,-213.56 2.5,-1.8 4.98,-3.59 7.5,-5.37 -0.56,-3.98 -1.02,-7.95 -1.52,-11.93 83.63,-223.02 255.15,-384.82 381.97,-580.75 -47.12,4.86 -94.1,9.98 -140.92,15.49 z m -184.94,23.56 c -300.89,305.08 -385.21,755.51 -330.67,1167.36 -60.69,34.67 -56.49,93.47 21.57,103.18 15.43,47.08 29.53,110.43 74.64,139.98 -30.81,-20.58 -56.92,-99.62 -67.29,-135.34 75.77,52.22 105.57,-28.75 -5.1,-18.58 -6.29,-24.59 46.35,-87.18 20.6,-106.06 -13.3,-1.87 -24.42,1.42 -33.42,9.85 -30.17,-459.82 119.77,-783.84 343.66,-1163.61 -8.01,1.07 -16,2.12 -23.99,3.22 z m -218.69,32.38 c 0.36,0.03 0.72,0.03 1.1,0.03 -135.49,211.91 -167.05,442.33 -206.22,684.32 -4.02,1.55 -8.07,3.08 -12.09,4.62 -3.67,9.5 -7.34,18.99 -10.99,28.47 3.65,-9.48 7.32,-18.97 10.99,-28.45 4.02,-1.56 8.07,-3.09 12.09,-4.64 -6.23,38.46 -27.98,121.33 -9.81,159.46 -11.79,-24.63 10.59,-129.57 20.09,-163.37 4.36,-1.66 8.73,-3.33 13.12,-5 -4.39,1.67 -8.76,3.34 -13.12,5 69.37,-246.85 114.97,-465.76 249.3,-688.89 -18.15,2.81 -36.36,5.55 -54.46,8.45 z m -226.08,38.83 c -76.67,193.13 -108.55,397.11 -114.97,603.91 -2.53,81.57 -1.6,210.87 13.45,334.52 -11.74,-16.67 -37.33,-41.14 -38.14,-41.83 -50.68,9.94 35.2,56.4 34.7,56.27 2.24,0.58 4,0.8 5.38,0.76 11.79,89.3 31.25,174.4 62.47,235.02 4.42,8.77 9.17,17.09 14.31,24.85 -5.04,-7.7 -9.79,-16.05 -14.31,-24.85 -69.87,-138.38 -54.19,-394.02 -52.4,-532.32 2.94,-226.15 45.45,-454.86 133.84,-664.26 -14.78,2.67 -29.61,5.21 -44.33,7.93 z m -71.1,167.74 c -4.65,-7.98 -62.92,-65.02 -57.56,-18.51 1.53,13.3 49.45,18.71 57.56,18.51 0.14,0.23 0.28,0.5 0.41,0.73 l 0.64,-0.69 c -0.33,0.03 -0.7,-0.07 -1.05,-0.04 z m -62.17,195.66 c -0.72,0.64 -0.1,2.77 -0.1,4.28 10.95,4.02 2.95,-6.84 0.1,-4.28 z m -6.53,-120.3 c -12.95,-4.84 -24.4,-4.7 -31.57,9.56 15.05,8.61 33.89,24.93 32.76,-4.82 -0.03,-1.61 -0.77,-3.18 -1.19,-4.74 z m -53.81,-204.82 c -24.96,71.57 -24.09,145.89 -40.11,218.36 -4.93,-2.15 -10.8,-5.33 -18.25,-9.62 l -2.81,-0.15 2.78,0.15 c 7.46,4.29 13.35,7.47 18.28,9.62 -2.95,13.34 -6.66,26.6 -8.43,40.12 -1.38,-0.54 -2.74,-1.09 -4.09,-1.69 -3.13,-3.68 -6.25,-7.38 -9.42,-11.06 -1.11,-9.71 -2.21,-19.42 -3.31,-29.13 -12.07,4.15 -24.24,3.38 -36.45,0.84 -0.84,24.25 -6.17,47.51 -15.98,69.75 -13.66,15.83 -13.66,15.83 -4.3,34.51 6.5,-1.79 13.01,-3.57 19.5,-5.38 8.28,4.92 15.39,3.13 21.56,-3.81 9.69,-1.22 19.14,-3.3 28.38,-6.26 -5.76,78.08 3.17,165.34 8.71,244.54 4.12,59.1 0.5,192.03 19.82,279.99 0.57,2.63 1.2,5.1 1.8,7.64 0.23,0.96 0.45,1.95 0.69,2.9 3.14,12.6 6.87,23.94 11.24,33.82 0.55,1.25 1.1,2.47 1.66,3.67 0.75,1.54 1.48,3.08 2.25,4.54 1.48,2.84 3.01,5.56 4.63,8.06 -1.62,-2.5 -3.15,-5.25 -4.63,-8.06 -0.76,-1.46 -1.5,-2.99 -2.25,-4.54 -0.56,-1.19 -1.11,-2.43 -1.66,-3.67 -4.34,-9.92 -8.07,-21.3 -11.24,-33.82 -0.23,-0.95 -0.46,-1.93 -0.69,-2.9 -0.6,-2.52 -1.22,-5.04 -1.8,-7.64 -28.29,-133 -0.29,-382.67 6.68,-484.08 8.75,-127.75 37.85,-235.07 67.6,-357.22 -16.8,3.41 -33.44,7.04 -50.16,10.52 z m -137.98,29.8 c -33.99,216.52 -45.84,432.62 -12.6,648.88 -17.25,1.8 -32.13,8.13 -44.61,19.01 -38.61,-214.09 -60.61,-436.6 -13.3,-651.92 -50.33,11.7 -100.45,23.77 -150.27,36.29 -16.86,76.6 -9.52,154.63 -24.61,230.61 -5.47,-2.54 -10.24,-6.06 -14.36,-10.56 4.12,4.5 8.89,8.02 14.36,10.58 -21.86,109.65 65.43,256.07 62.97,317.75 4.97,23.17 11.48,45.93 19.51,68.28 -1.98,1.64 -3.97,3.29 -5.9,4.96 -9.9,-2.31 -19.8,-4.64 -29.69,-6.97 9.89,2.33 19.79,4.66 29.69,7.01 5.34,7.36 8.88,12.02 11.97,14.31 5.92,18.63 11.52,37.34 16.78,56.15 -2.52,3.27 -4.99,10.4 1.84,6.69 5.26,21.85 14.56,41.96 27.95,60.34 -1.02,2.67 0.96,7.83 2.94,4.61 45.55,72.45 25.01,262.96 95.01,312.14 -48.58,-34 -67,-355.47 -82.98,-416.87 -4.49,-17.24 -8.73,-34.33 -12.86,-51.36 3.39,-6.35 6.8,-12.69 10.19,-19.05 -3.39,6.36 -6.8,12.7 -10.19,19.05 -45.07,-186.06 -66.63,-361.66 -14.54,-552.39 -8.14,45.16 -15,90.93 -14.9,136.89 -3.77,1.99 -3.82,4.66 -0.12,8.07 0.55,40.81 -2.58,84 2.36,124.47 -5.48,3.89 -5.53,10.61 -5.7,17.28 3.53,-0.82 5.86,-2.28 7.46,-4.09 44.31,281.59 135.61,498.94 254.42,755.63 -3.7,10.78 -0.53,17.41 9.55,19.92 12.63,27.3 29.27,51.97 49.57,74.24 1.73,2.34 3.23,4.08 4.41,5.02 -1.55,-1.62 -2.91,-3.37 -4.41,-5.02 -11.9,-16.07 -34.87,-60.79 -42.17,-73.42 6.91,-8.04 13.83,-16.08 20.73,-24.13 -12.22,-12.27 -23.65,-12.81 -34.3,-1.64 -68.19,-140.2 -123.64,-287.81 -171.42,-436.12 14.34,3.58 32.86,-44.73 35.06,-52.91 15.74,108.51 64.85,197.68 89.27,302.78 -22.97,-98.86 -50.63,-233.56 -59.72,-348.23 2.1,2.17 4.77,3.52 8.02,4.07 -0.53,-1.1 -4.05,-11.4 -8.32,-9.03 -5.49,-82.84 -6.04,-165.87 -11.5,-248.61 4.72,-1.51 6.11,-5.9 9.37,-16.94 -3.5,-1.74 -7.19,-2.92 -11.06,-3.52 -10.14,-109.49 7.95,-229.8 23.18,-338.4 -9.06,2.01 -18.04,4.11 -27.08,6.15 z m -34.67,630.85 c -1.26,1.46 -2.42,3.68 -3.75,4.82 1.33,-1.14 2.49,-3.36 3.77,-4.82 z M 2185.94,3126.6 c -2.95,-40.52 -6.86,37.55 0,0 z m -32.97,117.1 c -2.25,1.3 -3.17,4.93 -4.65,7.54 5.28,16.47 16.5,25.64 33.67,27.44 8.13,-0.61 -15.54,-42.68 -29.02,-34.98 z m 51.02,345.01 c -1.04,-16.85 -24.36,1.5 -7.45,10.89 5.24,-2.39 7.73,-6.03 7.45,-10.89 z m -72.57,-443.51 c -15.78,4.12 -31.54,8.16 -47.24,12.36 -23.31,210.78 38.52,511.85 112.89,718.35 3.67,12.5 7.55,23.32 11.64,32.08 -25.68,-1.09 -4.06,30.97 4.86,9.36 -1.66,-2.76 -3.28,-5.96 -4.86,-9.36 0.1,0 0.17,-0.02 0.26,-0.01 -3.99,-10.38 -7.95,-21.13 -11.9,-32.07 -30.58,-104 -47.27,-323.47 -59.07,-424.23 -13.2,-106.79 -3.75,-201.84 -6.58,-306.48 z m -86.3,284.7 c 2.31,0.85 4.62,1.67 5.88,3.29 -1.26,-1.62 -3.57,-2.44 -5.88,-3.29 z m 128.18,613.57 -3.36,1.63 3.12,2.26 z m -275.78,-489.55 c 32.44,-1.05 22.03,-14.53 -3.82,-18.1 -11.2,-48.81 -22.76,-101.58 -27.74,-151.01 2.9,-3.56 5.5,-5.46 9.1,-6.01 -3.6,0.55 -6.2,2.45 -9.1,5.99 -5.61,-55.23 -12.46,-107.27 -11.16,-162.42 -49.9,14.86 -99.49,30.1 -148.76,45.78 0.54,86.45 60.5,417.66 121.36,476.78 -16.73,-16.28 -23.36,-105.49 -25.45,-134.84 38.75,71.51 59.96,168.54 108.99,235.32 -34.73,6.45 -28.83,0.73 -56.07,36.06 27.15,1.85 48.84,-6.19 63.76,-26.51 58.68,67.18 45.05,191.94 103.01,243.19 1.97,1.94 4,3.77 6.15,5.36 -2.21,-1.62 -4.12,-3.56 -6.15,-5.36 -45.14,-44.37 -44.5,-178.78 -57.44,-226.73 -21.18,-78.57 -75.92,-160.48 -83.05,-240.37 2.27,-2.15 4.48,-4.78 6.7,-7.68 41.64,155.01 149.47,457.72 286.51,557.79 -59.63,-43.56 -99.69,-173.22 -133.05,-241.53 -57.21,-123.84 -118.34,-251.09 -143.79,-385.71 z m 110.15,-2.4 c -10.63,-113.28 -20.91,-260.43 -4.23,-371.88 -9.65,2.67 -19.29,5.37 -28.93,8.09 19.16,104.69 -28.03,324.59 36.53,413.88 -11.29,-4.13 -31.27,-9.67 -64.32,-17.52 -43.69,-10.31 42,58.87 36.03,51.1 -16.83,-21.96 63.12,-18 34.34,-31.17 15.2,-7.58 12.23,-25 -9.42,-52.5 z m -55.38,-293.36 c -2.09,5.67 1.97,7.18 4.14,1.53 -1.39,-0.5 -2.76,-1 -4.14,-1.53 z m -29.16,-67.89 c -6.47,8.75 -3.4,10.24 5.38,5.25 -1.81,-1.78 -3.59,-3.52 -5.38,-5.25 z m -276.24,96.66 c -15.6,5.1 -30.98,10.47 -46.52,15.63 16.63,156.8 53.83,301.91 118.87,445.4 45.27,99.92 117.81,309.45 211.33,370.65 -108.61,-70.93 -215.24,-439.77 -242.93,-548.21 -24.11,-93.7 -47.03,-186.37 -40.75,-283.47 z m -103.93,34.93 c -25.8,8.84 -51.47,17.84 -77.08,26.91 0.34,9.17 0.39,18.35 0.55,27.52 -26.63,6.35 -22.72,58.75 6.3,49.43 71.99,229.94 132.54,497 265.55,707.36 -4.86,6.37 -7.98,13.64 -9.32,21.85 -149.74,-231.94 -250.99,-520.61 -317.18,-786.91 -11.33,4.11 -22.72,8.13 -34,12.27 27.33,88.53 38.7,178.57 84.49,261.09 -15.59,-13.05 -66.3,-20.79 -67.29,14.76 9.9,28.32 32.02,39.28 66.37,32.91 8.44,-3.61 15.86,-4.64 19.33,-8.64 64.86,168.34 144.37,334.25 246.67,483.47 -2.01,19.29 6.81,38.15 24.18,34.24 13.97,19.21 27.51,38.94 42.57,57.63 -12.22,-2.58 -18.16,4.55 -17.84,21.39 12,14.31 22.08,12.07 30.24,-6.67 12.17,14.69 26.63,26.56 43.05,35.96 2.37,1.53 4.72,2.9 7.01,4.01 -2.42,-1.23 -4.67,-2.68 -7.01,-4.01 -32.37,-20.94 -70.82,-79.19 -92.62,-109.98 31.78,-13.67 24.22,-92.03 -9.33,-71.55 -69.63,-131.09 -110.33,-312.67 -157.4,-454.31 -33.17,-99.92 -60.02,-243.41 -47.24,-348.73 z m -179.01,318.17 c -21.07,-76.24 -36.54,-157.43 -50.11,-235.68 -7.04,2.65 -14.1,5.26 -21.1,7.93 26.1,76.95 35.15,232.23 90.5,293.43 21.46,-12.38 15.04,-34.28 -19.29,-65.68 z m -149.89,-197.24 c -24.84,9.78 -49.72,19.54 -74.36,29.55 17.14,91.02 64.05,216.5 101.78,301.4 34.88,78.48 161.82,388.41 260.59,385.07 -32.88,0.66 -101.6,-116.57 -115.57,-150.71 5.01,2.44 10.34,4.63 16.46,6.28 0.56,-6.1 1.03,-11.51 1.43,-16.47 39.54,76.88 83.03,146.33 126.48,175.19 -48.63,-32.11 -99.21,-139 -125.78,-184.89 -0.19,3.01 -0.42,6.26 -0.7,9.7 -47.42,-92.22 -89.12,-195.12 -118.09,-251.59 -47.1,-97.33 -56.83,-197.54 -72.24,-303.53 z m -141.81,57.57 c -14.98,6.26 -29.99,12.47 -44.9,18.81 23.25,101.64 100.65,165.33 139.73,254.71 -3.43,-7.82 -26.26,-60.88 -34.03,-77.4 -29.32,-61.52 -39.91,-131.18 -60.8,-196.12 z m -90.734,38.5 c -11.953,5.19 -23.743,10.49 -35.657,15.72 20.364,64.86 47.95,127.16 66.911,192.43 -6.15,-2.79 -12.48,-4.19 -18.942,-4.19 l -2.082,2.72 c 4.602,17 23.294,85.27 56.634,75.85 64,114.72 148.77,185.36 224.21,288.56 -98.91,-135.31 -187.74,-305.65 -257.3,-472.16 -17.763,-30.78 -29.02,-63.76 -33.774,-98.93 z m -60.832,252.68 c -29.629,-60.99 -54.446,-128.2 -70.301,-194.11 -12.387,5.67 -24.66,11.45 -36.977,17.19 33.957,73.86 89.055,148.36 113.508,223.45 20.41,-4.15 18.328,-19.67 -6.23,-46.53 z m 313.626,519.31 c 18.37,27.22 80.96,-46.28 25.91,-61.75 -21.02,3.5 -38.07,43.74 -25.91,61.75 z m 195.01,-68.14 c -0.9,-0.51 25.04,-11.62 0.22,-18.56 v 0.02 l -0.03,-0.02 c -4.38,2.81 -8.77,5.62 -13.18,8.43 4.28,3.47 8.25,7.49 12.99,10.13 z m 59.96,88.96 c 46.6,18.92 96.66,-61.5 36.9,-49.66 -30.32,-11.45 -95.73,25.75 -36.9,49.66 z m 733.96,-304.08 c 2.67,-0.28 2.65,-1.12 0.23,-2.44 0.02,-0.33 0.07,-0.64 0.08,-0.99 l -1.02,0.46 c 0.41,0.2 0.61,0.34 0.94,0.53 -0.07,0.82 -0.17,1.62 -0.23,2.44 z m 17.32,-22.3 c -6.54,0.98 -9.68,5.92 -17.71,18.78 l 0.02,0.02 c 8.01,-12.88 11.17,-17.82 17.69,-18.8 z m 8.84,-212.76 c 4.44,-2.13 2.89,-5.37 -1.55,-3.27 0.5,1.1 1.03,2.17 1.55,3.27 z m 471.29,468.13 c 18.61,-5.87 18.56,-14.87 -0.16,-27.01 -19.51,5.08 -19.47,14.08 0.16,27.01 z m 64.99,-1111.14 c 0.8,-3.13 1.02,-6.42 1.49,-9.67 -6.51,1.19 -13.05,2.36 -19.58,3.55 0.09,19.79 6.12,21.84 18.09,6.12 z m -18.43,289.25 c -6.57,5.44 -9.93,11.79 -10.08,19.06 6.56,-2.91 13.11,-5.76 19.7,-8.62 -3.2,-3.5 -6.42,-6.97 -9.62,-10.44 z m 464.27,684.28 c 2.24,-0.94 4.48,-1.83 6.72,-2.77 -3.32,-8.29 -9.92,-5.55 -6.72,2.77 z m 154.81,396.76 c 16.03,9.78 27.83,7.82 35.37,-5.85 1.53,-22.14 -44.63,-3.29 -35.37,5.85 z m 530.15,-44.51 c 10.54,2.33 30.08,-26.83 27.22,-34.35 -4.81,-12.68 -47.35,-14.06 -51.02,0.71 3.8,14.1 11.73,25.32 23.8,33.64 z m 159.56,32.27 c 12.87,-6.72 12.83,-13.97 -0.14,-21.74 -13.38,4.96 -13.34,12.18 0.14,21.74 z M 3670.37,3491.86 c -45.47,10.6 -39.22,-2.52 -71.76,39.71 32.43,2.19 57.24,-9.46 71.76,-39.71 z m 947.34,-500.43 c 0.49,3.29 0.97,6.58 1.47,9.87 2.79,-3.29 5.56,-6.58 8.34,-9.87 -3.26,0 -6.53,0 -9.81,0 z m -208.84,883.69 c -4.85,7.97 -3.52,10.96 4.98,5.37 -1.64,-1.81 -3.31,-3.59 -4.98,-5.37 z m -85.78,225.8 c -1.33,0.55 -2.25,1.63 -2.76,3.18 4.48,4.62 7.82,4.55 9.97,-0.18 -2.4,-1.08 -4.73,-2.38 -7.21,-3 z m -53.29,-3.31 c -4.12,9.78 -4.29,7.13 3.31,11.54 h 0.02 c 5.35,-5.82 4.24,-9.69 -3.33,-11.54 z m 89.8,461.54 c 3.43,-0.53 3.97,-2.08 1.67,-4.69 -3.43,0.55 -3.98,2.1 -1.67,4.69 z m 88.88,952.17 c -24.28,-0.84 -56.06,17.3 -22.85,32.8 16.26,-2.81 28.47,-11.06 36.6,-24.73 -4.57,-2.86 -9.07,-7.91 -13.75,-8.07 z m -163.75,-249.78 c -13.75,-0.36 -28.11,5.29 -41.09,-3.81 -65.51,-9.41 -43.42,32.36 -1.26,50.2 4.76,-15.79 9.86,-15.19 15.33,1.79 3.44,-0.46 6.84,-0.89 10.3,-1.35 1.19,-8.57 5.78,-14.9 12.93,-19.54 3.61,-8.77 5.51,-17.76 3.79,-27.29 z m 180.66,766.1 c -3.39,-2.02 -5.21,-0.69 -5.47,3.95 2.7,-0.3 4.53,-1.62 5.47,-3.95 z m 338.42,136.63 c 7.45,-0.2 11.83,-8.5 4.94,-12.16 -12.34,-0.5 -11.23,12.37 -4.94,12.16 z m 228.37,-887.28 c 8,41.92 44.52,-67.16 7.31,-58.87 -15.02,3.3 -8.24,53.92 -7.31,58.87 z m 1882.78,685.63 c -0.53,-2.1 -4.16,-3.38 -6.42,-5.03 2.26,1.65 5.89,2.93 6.42,5.03 z m 51.31,39.01 c 6.51,-17 1.97,-30.37 -13.64,-40.11 -18.88,-6.85 -9.9,70.41 13.64,40.11 z m 15.82,61.75 0.33,0.25 c 13.15,0.07 16.55,-5.21 10.28,-15.84 -9.02,0.05 -12.53,5.24 -10.61,15.59 -7.21,-0.98 -14.75,-1.14 -21.99,-1.99 7.24,0.85 14.78,1.01 21.99,1.99 z m 52.51,24.77 c 12.23,10.15 16.34,3.27 21.11,-2.65 -6.69,-11.88 -31.16,-5.69 -21.11,2.65 z M 5186.62,7110.58 c 4.71,16.59 5.16,16.77 19.38,8.18 -6.45,-2.72 -12.91,-5.43 -19.38,-8.18 z m -98.34,-18.17 c 3.38,-0.84 4.86,-3.86 4.89,-7.52 -11.29,-28.72 -28.34,13.37 -4.89,7.52 z M 7800,4066.96 c -21.61,-2.99 1.56,26.7 5.88,5.1 -1.92,-1.76 -3.73,-4.8 -5.88,-5.1 z m -72.7,399.58 c -3.69,-2.39 -8.94,-2.42 -13.51,-3.47 0,0 0.02,-0.2 0.02,-0.3 l -0.05,-0.02 c 14.56,-16.93 3.89,-51.32 -21.57,-54.39 -16.89,38.76 -15.59,42.03 21.57,54.39 -0.07,0.09 -0.14,0.18 -0.22,0.28 0.08,0.02 0.17,0.02 0.17,0.02 0.08,3.11 -0.09,6.21 -0.45,9.27 -2.65,1.44 -34.03,67.84 -9.08,66.64 12.44,-4.86 15.68,-16.59 9.72,-35.17 16.3,-4.5 38.16,-21.13 13.4,-37.25 z m -63.88,89.97 c 0.39,1.54 0.77,3.07 1.16,4.6 l 0.09,-0.09 c -0.41,-1.49 -0.82,-2.99 -1.25,-4.51 z m -35.63,-15.83 c -1.9,-0.27 -4.34,3.08 -6.49,4.75 -2.47,24.38 26.87,-1.73 6.49,-4.75 z m -15.02,-60.1 c -0.95,-9.44 -16.25,12.96 -6.42,29.34 10.35,-6.01 12.51,-15.79 6.42,-29.34 z m -1.5,-831.22 c -5.28,-2.89 -11.25,-4.53 -14.51,-5.74 -6.96,0.59 -34.4,10.67 -12.91,22.33 23.01,3.31 32.15,-2.22 27.42,-16.59 z m -222.62,323.93 c -16.01,4.53 -17.82,10.67 -5.41,18.4 16.43,-4.64 18.22,-10.76 5.41,-18.4 z m -11.68,-60.51 c -6.98,-13.9 -43.08,2.28 -34.5,10.74 3.25,3.17 43.62,7.4 34.5,-10.74 z m -28.14,-48.61 c 5.51,-6.49 8.43,-13.78 8.79,-21.85 -17.25,6.18 -17.5,6.79 -8.79,21.85 z m 10.08,145.64 c -8.56,-6.17 -14.2,-5.05 -16.94,3.36 9.09,7.47 14.74,6.35 16.94,-3.36 z m -8.83,486.72 22.52,-5.07 c -7.74,0.36 -15.34,2.08 -22.52,5.07 z m 10.56,-101.99 c -16.05,4.52 -17.85,10.67 -5.42,18.41 16.41,-4.66 18.22,-10.78 5.42,-18.41 z m -100.42,-295.26 c -0.86,0.46 -1.02,2.26 -1.51,3.47 3.09,2.22 4.79,1.42 5.08,-2.42 -1.21,-0.41 -2.76,-1.46 -3.57,-1.05 z m -42.37,-234.77 c -20.38,25.76 6.5,23.68 8.64,13.53 -2.88,-4.5 -5.76,-9.03 -8.64,-13.53 z m -5.97,258.01 -0.15,-0.09 c -0.09,3.7 -0.25,7.4 -0.5,11.11 3.22,-3.53 8.36,-6.97 0.65,-11.02 z M 7195,4317.66 c -13.12,5.94 -13.51,13.6 -1.16,22.95 0.39,-7.64 0.77,-15.27 1.16,-22.93 3.45,-5.78 7.59,-9.61 12.24,-11.03 1.55,-0.47 3.15,-0.68 4.81,-0.6 -1.66,-0.08 -3.26,0.13 -4.81,0.6 -4.65,1.42 -8.79,5.25 -12.24,11.01 z m -5.16,-31.9 c -20.37,25.75 6.49,23.67 8.64,13.55 -2.88,-4.52 -5.77,-9.05 -8.64,-13.55 z m -24,75.44 c -2.15,-2.18 -4.86,-3.28 -8.2,-3.28 -31.16,13.72 25.13,31.06 8.2,3.28 z m -107.15,-163.68 c -2.62,2.52 -2.31,4.64 0.84,6.36 0.65,-1.17 1.28,-2.34 2.03,-3.73 -0.91,-0.84 -1.89,-1.74 -2.87,-2.63 z m -8.64,112.69 c -0.46,-4.82 -1.96,-8.98 -4.55,-12.25 -3.65,-26.53 -24.73,-26.81 -27.17,0.37 -8.25,13.07 -8.15,26 0.24,38.78 -6.55,5.87 -13.84,9.55 -22.59,8.75 8.75,0.8 16.04,-2.88 22.62,-8.75 19.29,22.53 32.41,-16.66 31.45,-26.9 z m -27.08,193.08 c 13.5,1.74 16.09,-5.58 7.72,-21.96 -13.41,2.26 -15.99,9.58 -7.72,21.96 z m -73.63,-249.94 c 9.37,4.69 19.26,8.09 29.7,10.24 -7.97,-8.98 -17.94,-12.25 -29.7,-10.24 z m 1907.83,544.19 c -130.55,37.94 -636.14,-266.05 -607.49,84.31 -13.55,-8.59 -27.86,-9.44 -42.9,-2.54 -10.58,-74.75 43.47,-141.12 103.16,-179.67 -47.19,-34.78 -121.44,-116.54 -190.02,-75.09 -4.36,-2.63 -7.65,-0.53 -11.29,6.47 -25,15.51 -73.56,19.19 -91.82,44.13 32.49,33.03 59.77,154.72 13,199.9 51.52,-56.27 -84.54,-229.32 -181.9,-227.72 -105.7,1.72 -281,112.62 -212.9,236.6 -1.88,0.2 -3.56,1.64 -5.17,3.75 -42.8,-71.53 -6.97,-159.61 51.93,-204.7 -0.07,-0.75 -0.19,-1.57 -0.31,-2.39 10.9,-2.95 -134.87,-102.57 -171.29,-108.35 -57.61,-9.16 -167.29,-1.21 -196.09,56.54 -25.58,51.35 20.58,142.94 81.92,150.35 22.79,2.74 37.12,1.13 45.76,-2.89 -26.43,18.35 -46.68,35.09 -91.36,3.46 -121.14,27.6 -208.25,46.04 -334.08,31.78 -4.78,-19.79 -35.33,-34.14 -33.94,-4.66 -182.36,-33.84 -390.03,-147.92 -520.29,-274.71 1.86,-8.11 -6.04,-20.55 -15.37,-16.11 -21.47,-23.15 -37.87,-51.01 -56.09,-76.76 10.77,2.71 15.93,-2.13 15.47,-14.49 -3.54,-13.85 -23.6,-65.29 -46.28,-32.13 -1.87,-3.29 -3.75,-6.75 -5.64,-10.22 -1.64,2.49 -3.17,4.96 -4.75,7.43 -3.2,-8.84 -6.24,-17.78 -9.3,-26.7 13.6,-21.75 27.62,-43.18 42.05,-64.35 25.87,90.09 101.49,144.11 161.54,207.19 -40.45,-42.4 -116.3,-195.72 -120.36,-265 22.67,-30.65 46.27,-60.5 70.82,-89.47 8.87,87.85 37.93,155.51 101.12,220.16 45.19,46.28 199.19,198.32 264.59,195.89 -47.69,2.26 -201.97,-164.95 -237.78,-209.6 -59.49,-74.22 -102.27,-163.35 -78.5,-262.31 18.03,-21.02 38.44,-39.46 61.24,-55.32 -76.02,155.9 60.88,297.13 159.74,367.61 -35.76,-25.66 -82.3,-87.85 -92.23,-132.25 0.73,-0.32 1.47,-0.64 2.17,-0.94 -1.02,-1.14 -2.08,-2.28 -3.12,-3.43 -15.04,-101 -40.92,-178.25 -1.06,-281.38 12.48,-9.3 24.98,-18.51 37.6,-27.54 -16.78,94.11 40.08,160.4 67.79,243.68 -0.72,0.57 -1.45,1.14 -2.19,1.71 -0.66,3 -1.41,5.97 -2.26,8.92 2.77,0.32 5.58,0.43 8.3,0.96 8.18,26.51 12.77,56.26 34.89,65.4 -13.25,-5.51 -23.44,-49.18 -25.41,-63.05 19.29,5.46 16.48,25.57 18.47,42 18.81,-16.27 37.29,-32.9 55.44,-49.93 24.22,60.65 59.41,113.24 88.96,170.16 -28.22,-54.34 -31.49,-151.24 -48.54,-217.14 10.65,-6.98 19.74,-15.68 27.26,-26.1 -1.62,-6.93 -1.27,-15.11 -10.86,-16.89 0.05,-0.8 0.1,-1.58 0.12,-2.38 l -0.07,1.35 -0.02,0.02 c -5.55,8.34 -13.37,13.69 -23.42,16 -28.72,-91.18 -4.83,-220.43 17.9,-308.35 4.23,-2.45 8.54,-4.76 12.8,-7.18 -7,10.06 -6.41,22.08 -7.09,33.73 6.53,-3.29 13.07,-6.55 19.61,-9.82 7.26,-12.48 6.23,-22.22 -3.07,-29.21 11.96,-6.72 23.86,-13.53 35.9,-20.11 -59.21,123.75 -16.64,326.84 61.43,432.76 -5.41,1.08 -10.65,2.75 -15.73,5.05 -2.14,-1.07 -4.29,-2.14 -6.44,-3.22 2.01,1.21 4.05,2.45 6.05,3.68 3.83,11.29 16.66,14.88 25.83,6.7 0.38,0.46 0.72,1.06 1.09,1.55 17.5,60.69 37.51,116.76 57.32,150.89 5.55,10.76 11.95,19.79 19.61,26.23 1.99,1.81 3.98,3.34 5.94,4.54 -2.09,-1.27 -4.01,-2.91 -5.94,-4.54 -6.44,-5.83 -13.02,-14.87 -19.61,-26.23 -23.05,-44.67 -31.82,-117.93 -57.32,-150.89 -30.18,-104.68 -52.83,-222.72 -53.83,-264.11 -2.1,-86.18 22.15,-136.98 49.66,-218.36 43.56,-22.26 87.78,-43.33 132.59,-63.28 -39.91,106.06 -69.61,201.29 -57.41,316.31 4.62,43.53 19.27,240.32 67.53,268.38 -46,-26.07 -42.37,-251.1 -40.45,-296.33 5.08,-120.48 52.93,-203.87 100.54,-309.15 8.22,-2.36 16.43,-6.97 15.2,-15.45 39.53,-16.09 79.43,-31.47 119.86,-45.84 -130.06,198.11 -121.45,432.23 -56.39,651.64 -9.26,3.93 -8.32,6.61 -1.19,18.95 2.15,-2.4 3.87,-4.99 5.2,-7.71 6.58,16.83 10.83,34.74 16.52,51.88 -9.02,-3.27 -37.72,5.64 -28.07,15.16 13.37,8.4 24.42,7.99 33.07,-1.24 4.67,14.05 12.68,26.26 23.67,36.89 1.78,2.05 3.57,3.86 5.37,5.11 -1.93,-1.62 -3.59,-3.4 -5.37,-5.11 -18.81,-21.74 -35.18,-84.74 -41.93,-114.29 0.12,-0.87 0.28,-1.7 0.35,-2.56 -0.35,0.11 -0.58,0.2 -0.92,0.32 -43.24,-234.43 -42.27,-489.76 129.48,-676.1 32.71,-10.58 65.59,-20.82 98.82,-30.35 -94.55,146.31 -142.58,371.45 -95.98,544.19 -4.66,1.47 -6.79,5.08 -6.33,10.86 2.76,-0.99 5.55,-1.99 8.32,-2.93 11.83,49.55 17.84,97.22 31.67,146.69 -5.8,-20.75 -4.04,-101.53 -8.81,-132.97 17.28,-35.68 22.75,-11.8 51.2,-22.01 -1.76,-2.06 -3.54,-4.12 -5.3,-6.17 -5.67,-2.31 -9.57,-6.79 -13.53,-11.15 -13.96,-2.84 -26.21,16.04 -38.87,6.01 -23.81,-149.14 46.67,-398.97 134.64,-524.73 15.57,-4.31 21.25,-5.57 18.13,-24.86 1.03,-1.4 2.05,-2.79 3.07,-4.2 32.99,-8.57 66.06,-16.82 99.24,-24.73 -73.63,140.16 -71.71,335.34 -46.51,485.55 30.7,182.96 127.87,278.17 237.4,418.68 -202.82,-259.26 -243.82,-586.24 -161.66,-910.97 31.19,-7.27 62.43,-14.28 93.77,-21.05 -83.94,186.11 -95.53,359.52 -47.47,554 -2.76,-11.16 -1.38,-82.34 -1.02,-101.36 2.94,9.9 10.18,16.71 21.69,20.48 22.02,-2.81 -6.79,-43.31 -13.59,-44.24 -5.09,1.12 -7.88,4.02 -8.36,8.71 -7.57,-150.97 42.62,-320.29 119.47,-452.53 17.37,-3.52 34.76,-6.84 52.15,-10.2 -26.89,-10.76 -53.63,-21.71 -80.78,-32.2 -6.85,1.69 -13.9,3.59 -20.82,5.35 -2.03,-4.66 -4.06,-9.3 -6.07,-13.96 -4.83,-4.12 -9.67,-8.23 -14.5,-12.34 -8.43,7.29 -16.89,14.58 -25.32,21.87 3.53,6.01 6.38,10.48 9.07,13.87 -58.43,15.45 -118.72,32.79 -180.62,52.15 0.12,-9.21 0.22,-18.45 0.34,-27.67 l 0.55,-0.56 -0.55,0.56 c -35.97,1.89 -65.17,25.47 -83.5,54.66 -122.43,41.02 -251.33,83.69 -367.54,140.43 -7.23,-1.06 -16.66,-3.06 -23.01,-6.61 6.35,3.55 15.78,5.55 23.01,6.61 -0.07,0.45 -0.07,0.91 -0.12,1.39 -589.76,257.53 -1096.95,643.4 -1028.92,1348.24 -17.12,-6.42 -28.8,-1.8 -34.97,13.85 8.46,13.74 21.1,18.28 37.91,13.64 21.84,189.27 77.52,357.56 126.82,476.92 -9.05,3.45 -18.13,6.9 -27.2,10.35 -3.65,9.51 -7.33,18.99 -10.98,28.49 3.65,-9.5 7.33,-18.98 10.98,-28.47 9.07,-3.45 18.15,-6.92 27.2,-10.37 20.77,50.23 40.38,91.87 55.83,122.67 140.09,23.33 282.43,95.5 347.41,227.71 591.86,-36.89 371.33,860.4 22.44,1050.97 1.35,-37.34 -88.26,12.43 -90.66,44.95 -423.97,195.48 -907.82,246.63 -1369.04,205.45 1.73,-5.58 2.63,-11.43 3.86,-17.19 -5.62,1.51 -11.22,3.02 -16.83,4.52 -0.75,3.82 -0.94,7.64 -0.65,11.45 -262.44,-24.49 -524.74,-70.88 -776.83,-148.72 -11.91,-14.03 -19.86,-30.05 -23.01,-48.81 4.96,-7.48 7.33,-15.5 8.51,-23.75 170.43,58.44 362.93,102.15 543.5,104.21 0,0 -0.12,0.16 -0.19,0.23 2.48,5.69 3.61,11.59 3.38,17.71 14.74,0.84 23.12,-10.21 33.31,-17.84 1.96,0.76 19.98,5.41 20.67,-1.27 4.09,-0.07 8.14,0.16 12.21,0.21 -2.33,6.35 -0.81,10.63 4.66,12.82 1.21,-1.78 2.43,-3.54 3.64,-5.3 0.27,-2.43 0.46,-4.87 0.68,-7.29 235.72,10.07 474.34,23.31 706.97,-36.4 139.49,-35.82 269.87,-108.6 408.93,-152.46 91.37,-28.81 343.45,-63.5 393.61,-138.74 -51.83,78.8 -267.03,120.3 -349.35,151.34 -7.49,-2.72 -19.28,-3.48 -20.64,7.56 -86.22,33.39 -178.39,82.59 -261.86,123.43 -25.63,1.23 -55.51,-2.63 -61.27,23.42 -3.21,2.97 -6.43,5.92 -9.67,8.89 -0.02,0.44 -0.07,0.89 -0.11,1.35 -72.95,24.47 -150.19,58.92 -226.32,71.55 339.98,-14.17 791.23,-74.04 1065.24,-299.99 219.5,-181.01 447.22,-877.08 -30.65,-840.31 -125.51,70.43 -159.19,307.75 -11.66,376.31 40.95,19.02 102.15,16.53 142.31,-5.31 -18.15,27.79 -43.93,52.98 -74.29,59.41 -99.13,20.95 -225.58,-78.8 -230.31,-179.29 3.52,-1.69 7.35,-2.71 11.04,-4.04 -1.77,-2.06 -3.52,-4.11 -5.28,-6.17 -3.36,-1.35 -6.04,-3.54 -8.53,-5.94 -35.76,-123 27.31,-185.5 97.17,-275.83 -79.16,-190.48 -413.77,-234.2 -589.6,-202.87 -9.03,-10.94 -34.6,9.8 -43.01,-1.71 -11.18,5.65 -22.9,9.92 -35.14,12.77 -4.81,-12.97 -23.79,-4.39 -21,7.87 -43.36,11.65 -87.17,46.32 -129.06,63.8 -3.22,-5.62 -3.83,-11.33 -1.87,-17.18 10.49,-1.24 22.96,1.05 19,-18.68 -3.09,-15.35 -16.94,10.29 -17.62,13.92 -25.21,18.42 -28.53,-20.55 -48.44,-12.96 -12.57,4.8 -18.3,42.12 -8.75,52.43 -157.43,99.72 -146.05,336.76 -24.1,462.2 33.22,34.19 469.34,197.47 464.4,82.9 4.9,83.11 -200.8,53.09 -228.45,50.74 -117.85,-10.06 -206.51,-37.09 -294.89,-120.62 -125.58,-118.72 -170.65,-430.09 5.5,-532.9 -57.06,-192.79 -223.92,-293.36 -401.06,-367.16 -58.1,-130.21 -92.26,-268.81 -113.86,-409.44 4.88,-11.27 4.33,-22.02 -3.67,-32.21 -10.47,-97.55 -14.67,-195.41 -12.41,-293.45 8.27,-7.03 30.97,-8.8 33.32,-21.64 l -1.21,-0.68 c -11.82,3.74 -22.14,2.6 -30.97,-3.41 5.22,-77.52 12.46,-154.48 24.75,-231.34 4.94,0.26 9.88,0.48 14.81,0.73 3.53,-6.62 7.06,-13.25 10.58,-19.88 -7.52,0.07 -15.01,0.14 -22.53,0.19 1.74,-12.23 3.82,-24.44 6.17,-36.57 2.61,-3.31 2.76,-8.8 4.07,-13.23 -0.6,0.21 -1.17,0.43 -1.76,0.64 52.51,-278.58 180.6,-536.97 301.49,-790.96 2.25,-0.89 4.94,-2.7 8.61,-5.5 -1.66,-0.62 -3.3,-1.24 -4.97,-1.85 8.33,-17.71 17.55,-34.99 27.58,-51.84 5.32,-0.47 9.14,-3.56 10.11,-9.94 -0.88,-0.98 -1.7,-2.35 -2.57,-3.54 105.01,-186.95 223.9,-365.25 325.11,-554.29 -19.94,-2.51 -39.77,-5.19 -59.75,-7.57 -6.07,7.29 -18.59,22.72 -33.65,41.37 -0.71,-0.02 -1.45,-0.02 -1.93,-0.09 -1.29,1.16 -2.39,2.15 -3.51,3.15 0.56,0.44 1.14,1.03 1.71,1.55 -91.51,113.38 -176.13,229.13 -254.03,352.44 -15.66,-5.69 -30.37,31.65 -37.89,41.43 3.86,0.25 7.61,0.3 11.27,0.14 -102.18,157.77 -192.58,322.36 -262.97,496.73 -2.74,-5.01 -5.48,-10.04 -8.25,-15.04 -3.08,-0.26 -6.14,-0.48 -9.23,-0.73 -11.06,9.48 -5.05,18.21 1.19,26.89 4.32,-0.98 8.66,-1.96 12.99,-2.92 -6.05,15.1 -12.16,30.21 -18.34,45.27 -6.47,-1.67 -12.48,-4.66 -18.46,-7.81 0.32,12.66 0.61,25.31 0.91,37.95 1.65,0.44 3.33,0.64 5,0.94 -22.99,58.66 -41.98,118.05 -58.93,178.68 -16.96,-20.45 -33.62,6.41 -3.34,11.98 -15.02,52.7 -29.57,105.51 -41.5,158.96 -0.81,0.69 -1.61,3.68 -1,4.62 -21.26,93.51 -35.33,188.97 -42.15,284.61 -13.52,2.33 -13.57,42.41 -3.08,48.26 0,0 0.32,-0.18 0.52,-0.25 -5.49,141.39 2.27,287.19 28.91,426.14 l -0.36,0.29 c 0,0 0.32,0.12 0.48,0.16 23.99,113.7 67.61,216.07 104.68,324.47 -191.11,-18.52 -390.52,23.86 -571.7,82.13 0.5,-0.78 0.82,-1.72 0.96,-2.79 -3.2,1.9 -6.52,3.59 -9.78,5.37 0.23,0.02 0.45,0.07 0.66,0.11 -2.29,0.62 -4.41,1.58 -6.41,2.93 -1.45,-4.64 -9.33,-1.81 -6.73,3.54 -229.98,119.77 -196.59,423.12 -27.6,585.17 -29.22,-12.41 10.65,22.2 16.4,28.6 -0.22,0.12 -0.41,0.28 -0.64,0.4 1.74,1.09 1.67,0.74 0.64,-0.4 3.86,-2.15 6.23,-5.08 7,-8.83 92.39,70.73 334.56,139.83 392.55,-9.72 59.91,-154.48 -187,-108.64 -188.73,-129.14 8.21,1.47 11.74,-1.35 19.86,-11.44 167.58,-55.47 266.37,150.5 116.86,244.91 -111.2,70.2 -320.46,24.77 -413.53,-54.83 7.21,2.47 14.28,4.39 20.02,6.29 40.37,-13.69 -35.25,-51.37 -37.99,-22.26 -157.84,-142.58 -234.94,-476.37 -48.5,-630.33 -108.93,-81.3 -246.8,-140.49 -380.65,-139.58 -5.67,-2.65 -11.51,-4.89 -17.51,-6.86 47.4,-14.41 93.34,-27.42 136.19,-53.61 3.83,3.61 5.89,6.17 0.36,-0.23 39.29,-24.06 74.73,-54.13 103.25,-84.74 60.61,89.68 119.09,185.5 196.21,262.24 9.05,-3.95 23.01,-8.91 31.63,-11.68 -76.69,-83.91 -147.1,-178.68 -203.38,-277.29 3.51,1.83 6.69,0.69 9.52,-3.41 -2.97,0.39 -6.24,0.44 -9.37,0.64 8.29,-11.31 15.81,-23.35 22.74,-35.83 67.03,107.22 137.55,207.07 219.88,303.07 8.49,-2.92 16.97,-5.89 25.42,-8.86 -88.31,-101.38 -161,-213.7 -227.77,-330.07 30.28,-72.57 38.35,-156.95 18.85,-232.2 0.73,-1.87 -4.73,-17.05 -6.51,-21.58 42.74,-32.29 63.14,-92.99 54.25,-149.8 4.06,1.4 8.54,-208.53 10.64,-236.68 3.37,-0.02 6.7,-0.07 10.06,-0.09 3.2,-3.2 6.43,-6.42 9.63,-9.62 h -0.03 c 12.94,-36.66 7.55,-67.72 -16.2,-93.22 10.03,-456.57 128.44,-913.1 364.5,-1307.56 -141.57,103.13 -240.73,370.55 -290.66,532.72 -77.18,250.69 -88.69,517.68 -97.65,778.02 -8.76,2.9 -16.16,8.61 -18.77,21.2 3.32,13.17 6.61,26.31 9.92,39.47 -2.93,9.19 -9.41,15.56 -19.4,19.11 3.31,6.79 6.65,13.55 9.99,20.34 h 0.14 l 0.02,0.02 c 6.21,-0.07 12.46,-0.12 18.67,-0.19 2.95,71.99 -1.69,143.27 4.31,215.32 -17.85,-60.1 -69.01,-94.43 -120.27,-124.59 l 13.15,-2.97 c -4.81,0.23 -9.54,1.17 -14.17,2.42 -5.58,-3.77 -11.46,-6.92 -17.62,-9.39 -40.84,-330.34 -0.83,-648.42 87.86,-967.63 16.04,10.85 104.14,69.15 64.34,-18.83 -27.93,-61.68 -29.05,-2.24 -57.02,-6.44 53.01,-171.79 96.99,-351.82 191.6,-506.76 0.88,-0.34 1.8,-0.71 2.72,-1.06 29.1,-67.64 81.72,-129.16 139.85,-173.52 -31.88,-0.3 -63.76,-0.68 -95.71,-0.68 -15.72,8.82 -48.3,25.07 -89.69,45.09 1.97,-3.04 3.13,-6.83 3.38,-11.5 -3.51,-0.84 -7.01,-1.69 -10.53,-2.56 -2.92,1.15 -5.9,2.15 -8.92,3 0.8,5.85 1.6,11.72 2.42,17.57 0.08,0 0.1,-0.02 0.1,-0.02 -165.43,79.68 -336.23,149.36 -493.4,244.29 -111.48,67.37 -213.18,144.46 -310.26,232.37 -53.17,48.15 -194.45,159.67 -231.93,242.17 -0.34,0.73 -0.68,1.46 -0.99,2.18 -0.88,2 -1.64,3.98 -2.39,5.94 -0.43,1.13 -0.9,2.27 -1.29,3.4 -0.99,2.89 -1.85,5.75 -2.53,8.54 0.68,-2.81 1.55,-5.66 2.53,-8.54 0.39,-1.12 0.86,-2.27 1.29,-3.4 0.75,-1.97 1.51,-3.94 2.39,-5.94 0.31,-0.72 0.66,-1.45 0.99,-2.18 44.27,-95.72 234.62,-217.67 306.08,-272.77 95.46,-73.66 208.79,-167.92 325.13,-206.27 6.61,11.77 14.49,21.28 31.88,14.01 -2.66,-11.08 -8.42,-16.66 -16,-19.06 27.7,-8.43 55.94,-15.5 84.42,-21.87 -38.97,34.14 -33.66,34.94 -75.92,52.31 -3.18,6.01 -6.19,12.07 -9.23,18.12 -202.59,162.03 -427.71,326.41 -593.35,527.15 -78.36,94.97 -135.65,189.17 -159.22,311.43 -10.86,56.4 -56.07,363.98 -0.9,407.92 0.37,0.31 0.76,0.61 1.14,0.9 0.88,0.62 1.75,1.22 2.67,1.71 1.56,0.86 3.2,1.6 4.98,2.1 -1.76,-0.45 -3.38,-1.24 -4.98,-2.1 -0.93,-0.51 -1.81,-1.08 -2.67,-1.71 -0.38,-0.28 -0.76,-0.6 -1.14,-0.9 -35.25,-29.56 -2.63,-166.42 0.75,-188.85 17.5,113.01 88.18,212.35 189.65,266.12 5.33,-3.31 10.34,-7.5 15.78,-10.74 56.12,-87.83 179.25,-62.87 261.06,-38.44 117.53,-48.86 252.52,-29.25 337.8,66.61 152.19,36.02 315.49,151.31 174.49,303.86 5.76,106.47 -12.93,225.07 -68.9,317.74 -7.79,-0.8 -42.76,-6.81 -44.8,7.66 8.73,8.34 19.29,12.56 31.65,12.65 -41.88,60.15 -324.96,235.66 -381.86,128.25 32.49,59.67 315.66,-117.98 330.93,-137.87 72.6,-94.54 89.37,-232.66 78.06,-347.91 33.14,-24.97 75.58,-78.77 56.24,-122.97 l 0.19,0.1 c 18.23,-8.44 -2.49,-28.98 -7.68,-13.53 -38.51,-57.25 -133.33,-84.7 -196.4,-98.52 -72.53,-90.36 -263.54,-141.78 -331.34,-17.32 -32.2,59.09 -5.6,156.38 57.27,183.09 113.62,48.26 123.54,-86.66 75.89,-77.6 70.33,-14.01 36.79,118.33 -61.34,103.29 -73.37,-11.24 -106.44,-80.51 -112.32,-144.61 6.49,-7.13 15.72,-31.7 -1.02,-35.77 3.7,-22.94 17.98,-61.93 35.4,-79.8 -49.75,-15.81 -169.77,-42.76 -194.16,27.95 l -61.84,28.63 c -2.29,-1.02 -4.3,-1.98 -6.19,-2.9 -50.02,29.46 -120.95,175.6 -103.71,263.54 -30.55,-76.52 -16.11,-196.62 20.61,-242.29 -80.53,8.92 -176.65,-0.43 -249.36,-36.4 -95.21,-6.51 -230.25,146.58 -95.51,188.7 76.19,23.81 148.2,-88.42 56.41,-68.36 141.89,-32.31 40.56,155.95 -73.3,103.48 1.66,-13.6 -7.43,-23.99 -15.81,-8.53 -121.94,-74.11 -12.89,-242.42 106.27,-224.7 -38.44,-16.05 -77.56,-30.08 -117.44,-42.08 2.99,-5 4.61,-10.37 4.85,-16.11 -13.13,4.71 -16.37,6.22 -13.35,13.28 -102.9,-35.56 -267.02,-56.84 -361.54,13.78 -52.92,39.56 -103.59,207.73 -10.07,216.58 -115.45,-9.74 -47.9,-183.74 -8.66,-229.47 -173.34,8.16 -267.89,-123.7 -419.12,-173.22 12.43,-14.97 -160,14.42 -173,22.46 -87.45,54.03 -117.99,141.96 -63.4,238.98 -1.15,-0.34 -1.17,-0.02 0.68,1.29 -0.25,-0.43 -0.43,-0.86 -0.68,-1.29 6.05,1.8 43.82,22.22 7.59,12.65 120.26,175.42 255.84,-126.85 170.7,-112.48 89.03,-16.04 20.56,161.48 -74.55,174.09 -112.81,14.97 -171.3,-76.9 -171.65,-180.85 -113.7,19.65 -232.29,40.74 -330.75,-48.4 -1.21,-19.13 -2.44,-38.26 -3.65,-57.39 -14.78,-23.56 -24.09,29.67 -22.76,23.17 0.68,4.09 1.32,7.96 1.92,11.66 -68.92,-52.31 -172.86,-112.89 -260.59,-112.25 -336.812,173.45 127.19,389.89 166.12,292.95 -48.7,122.69 -458.85,-58.28 -259.45,-283.93 -4.15,1.05 -8.19,2.45 -12.09,4.23 3.49,12.16 -15.71,11.47 -22.65,9.01 -26.26,11.67 -131.04,82.72 -90.95,116.29 -45.39,-37.02 46.18,-109.71 72.7,-124.79 C 969.426,4182.65 836.262,3900.51 769.348,3687.45 l 9.8,-2.22 c -3.386,0.17 -6.738,0.69 -10.078,1.38 -6.394,-20.41 -11.902,-40.89 -18.074,-61.3 1598.904,-761.93 3476.424,-946.97 5217.094,-705.92 -4.16,24.53 3.36,37.5 22.54,38.94 10.16,-9.27 11.8,-20.9 4.95,-34.91 31.83,4.5 63.58,9.14 95.25,13.93 5.99,14.86 53.5,24.75 63.33,9.9 25.57,-1.69 49.15,3.11 70.7,14.35 0.39,5.1 1.78,9.94 4.16,14.54 -4.12,-0.73 -8.2,-1.44 -12.34,-2.13 -123.36,108.3 -254.72,215 -354.95,345.78 0.2,-0.68 0.44,-1.36 0.57,-2.12 v -0.02 c -2.3,-31.74 -23.53,17.09 -4.45,7.34 -114.59,137.04 -203.44,304.85 -285.82,463.04 -11.5,-0.39 -19.96,-6.15 -25.37,-17.26 -5.99,-49.93 46.83,-6.42 50.51,-32.77 1.48,-10.97 -75.99,-31.99 -83.56,1.74 -4.79,21.32 -9.31,120.29 38.81,86.61 -34.41,68.73 -72.12,141.51 -99.37,214.82 -0.82,2.17 -1.66,4.35 -2.46,6.51 -1.19,3.26 -2.33,6.51 -3.46,9.77 -3.32,9.41 -6.49,18.77 -9.3,28.03 2.85,-9.35 6.04,-18.69 9.3,-28.03 1.14,-3.26 2.25,-6.5 3.46,-9.77 0.78,-2.17 1.66,-4.34 2.46,-6.51 74.31,-196.8 247.73,-422.77 372.3,-596.64 5.87,15.19 16.89,23.6 33,25.23 11.43,-0.87 -18.01,-36.66 -25.34,-35.95 110.81,-155.22 333.37,-302.8 418.38,-470.77 106.5,18.01 212.05,37.73 316.6,59.17 -3.06,4.55 -4.63,9.39 -4.77,14.51 6.58,-2.88 13.14,-5.73 19.69,-8.61 -1.04,-1.15 -2.07,-2.27 -3.12,-3.41 110.56,22.83 219.88,47.67 328.04,74.25 -1.16,0.04 -2.26,0.41 -3.49,0.29 79.02,7.34 165.11,40.57 241.67,61.75 20.51,18.01 45.34,26.06 74.4,24.07 0,0.11 0.05,0.22 0.08,0.34 0,0 0.14,-0.02 0.19,-0.05 0,0 0.05,-0.15 0.08,-0.25 -0.12,-0.02 -0.23,-0.02 -0.35,-0.04 -0.14,-1.08 -0.33,-2.15 -0.5,-3.22 150.08,42.8 299.09,89.49 446.36,141.18 -2.13,5.07 -2.46,10.85 -3.01,16.56 -9.53,-3.37 -19.02,-6.83 -28.61,-10.14 -234.9,95.11 -460.58,216.85 -678.14,345.85 -5.94,-6.74 -22.9,4.11 -19.01,11.41 -216.33,130.05 -421.56,273.93 -590.43,463.2 -0.45,-0.03 -0.88,-0.03 -1.32,-0.03 l 0.23,-0.25 -0.25,0.25 h 0.02 c -3.22,3.21 -6.41,6.43 -9.62,9.63 -16.18,0.16 -32.36,0.31 -48.54,0.48 4,6.51 13.58,13.16 -0.48,19.24 1.31,11.49 7.84,17.66 15.91,22.32 -53.29,65.89 -99.11,141.05 -139.82,215.21 -27.19,-21.16 -31.65,6.08 -6.46,12.41 -9.08,17.07 -17.58,34.44 -25.32,52.15 -14.04,-7.22 -12.28,19.03 -11.09,26.26 2.58,-6.4 -58.5,151.05 -41.5,154.66 6.4,1.35 53.39,-139.31 51.92,-135.77 15.25,-3.15 19.61,-13.27 13.08,-30.37 44.92,-101.55 106.38,-189.42 175.41,-275.76 16.16,38.53 58.03,-99.11 42.58,-51.15 93.74,-107.13 211.98,-216.06 332.57,-292.39 3.17,5.39 4.47,11.53 4.27,18.22 -10.16,6.72 -20.65,12.92 -31.58,18.45 12.92,1.19 22.78,-6.92 31.58,-18.37 0.01,-0.03 0,-0.06 0,-0.08 6.81,-4.51 13.49,-9.2 19.95,-14.25 -0.84,-5.87 -1.55,-11.79 -2.44,-17.66 318.58,-198.25 645.71,-369.62 995.83,-506.22 -2.23,-0.8 -4.48,-1.57 -6.72,-2.37 5.51,1.03 11.01,2.03 16.5,3.06 -4.32,-8.77 -6.98,-14.01 -10.8,-18.64 16.16,5.79 32.23,11.83 48.36,17.73 -8.07,-2.44 -16.17,-2.64 -24.24,0.27 4.12,21.44 10.54,36.2 21.36,48.93 -1.28,-16.48 8.54,-32.05 3.99,-48.79 276.45,101.13 547.45,216.75 809.72,350.65 -114.96,135.77 -180.61,310.55 -167.87,485.21 5.15,70.25 48.94,295.64 130.28,314.78 -85.26,-19.29 -104.92,-300.88 -97.25,-374.47 29.83,80.6 74.46,157.13 118.89,230.42 -5.26,3.89 -11.27,7.47 -18.72,10.22 14.21,4.32 23.04,6.97 29.23,7.29 33.57,54.25 69.37,107.73 107.79,158.71 -1.3,4.48 -2.54,8.98 -3.86,13.44 -5.03,0.59 -10.06,1.16 -15.07,1.73 l -0.02,-0.02 -0.03,0.05 0.03,-0.03 c 2.2,13.21 8.05,23.95 17.58,32.23 -0.1,0.16 -0.18,0.32 -0.27,0.47 0.75,0.12 0.86,0.05 0.27,-0.45 5.24,-9.56 10.53,-19.06 15.88,-28.52 35.88,45.84 154.36,216.8 229.75,167.67 -7.48,25.37 -26.57,9.23 -41.9,17.03 26.4,39.55 86.2,-29.26 61.12,50 -25.26,11.33 -52.66,12.93 -78.83,4.06"
         style="fill:#7989af;fill-opacity:1;fill-rule:nonzero;stroke:none"
         id="path72" />
      <path
         d="m 7044.69,4242.68 c 25.5,32.96 34.27,106.22 57.32,150.89 -19.81,-34.13 -39.82,-90.2 -57.32,-150.89"
         style="fill:#7989af;fill-opacity:1;fill-rule:nonzero;stroke:none"
         id="path74" />
      <path
         d="m 6853.01,6251.73 c 13.31,-6.52 17.28,4.52 13.91,23.01 -1.18,-15.3 -6.04,-26.61 -13.91,-23.01"
         style="fill:#7989af;fill-opacity:1;fill-rule:nonzero;stroke:none"
         id="path76" />
      <path
         d="m 6194.24,6367.36 c -0.1,-1.37 -0.27,-2.78 -0.49,-4.23 0.23,1.45 0.37,2.85 0.49,4.23"
         style="fill:#7989af;fill-opacity:1;fill-rule:nonzero;stroke:none"
         id="path78" />
      <path
         d="m 6194.32,6368.71 c -0.02,-0.45 -0.04,-0.89 -0.08,-1.35 0.04,0.45 0.06,0.9 0.08,1.35"
         style="fill:#7989af;fill-opacity:1;fill-rule:nonzero;stroke:none"
         id="path80" />
      <path
         d="m 6850.45,6331.51 c -3.35,2.38 -6.98,4.53 -10.74,6.57 14.49,-22.21 24.07,-46.03 27.21,-63.34 1.57,20.23 -3.35,47.47 -16.47,56.77"
         style="fill:#7989af;fill-opacity:1;fill-rule:nonzero;stroke:none"
         id="path82" />
      <path
         d="m 6193.75,6363.13 c -0.38,-2.34 -0.8,-4.71 -1.5,-7.21 0.68,2.51 1.15,4.9 1.5,7.21"
         style="fill:#7989af;fill-opacity:1;fill-rule:nonzero;stroke:none"
         id="path84" />
      <path
         d="m 7760.43,3356.93 c 0,0.05 0,0.09 0.02,0.14 -0.37,-0.14 -0.74,-0.28 -1.11,-0.41 0.37,0.11 0.72,0.15 1.09,0.27"
         style="fill:#7989af;fill-opacity:1;fill-rule:nonzero;stroke:none"
         id="path86" />
      <path
         d="m 3496.2,4882.97 c -52.14,-0.7 -77.17,-28.34 -84.83,-67.44 15.58,39.02 42.81,66.75 84.83,67.44"
         style="fill:#7989af;fill-opacity:1;fill-rule:nonzero;stroke:none"
         id="path88" />
      <path
         d="m 4339.56,4821.9 c -0.04,0.03 -0.08,0.07 -0.12,0.1 -0.67,-1.98 -0.49,-1.66 0.12,-0.1"
         style="fill:#7989af;fill-opacity:1;fill-rule:nonzero;stroke:none"
         id="path90" />
      <path
         d="m 1998.95,4571.63 c 0.25,0.43 0.43,0.86 0.68,1.29 -1.85,-1.31 -1.83,-1.63 -0.68,-1.29"
         style="fill:#7989af;fill-opacity:1;fill-rule:nonzero;stroke:none"
         id="path92" />
      <path
         d="m 8002.74,4889.83 c -3.45,0.87 -7.04,1.58 -10.9,1.94 3.9,-0.45 7.51,-1.12 10.9,-1.94"
         style="fill:#7989af;fill-opacity:1;fill-rule:nonzero;stroke:none"
         id="path94" />
      <path
         d="m 8010.29,4887.48 c 7.59,-2.93 14.07,-7.16 19.52,-12.43 -4.8,5.24 -11.27,9.45 -19.52,12.43"
         style="fill:#7989af;fill-opacity:1;fill-rule:nonzero;stroke:none"
         id="path96" />
      <path
         d="m 5052.42,7048.19 c -0.03,0.03 -0.06,0.05 -0.1,0.08 -0.24,-0.1 -0.26,-0.15 0.1,-0.08"
         style="fill:#7989af;fill-opacity:1;fill-rule:nonzero;stroke:none"
         id="path98" />
      <path
         d="m 8004.71,4889.3 c -0.67,0.17 -1.29,0.37 -1.97,0.53 0.67,-0.16 1.31,-0.35 1.97,-0.53"
         style="fill:#7989af;fill-opacity:1;fill-rule:nonzero;stroke:none"
         id="path100" />
      <path
         d="m 8010.29,4887.48 c -1.79,0.68 -3.67,1.27 -5.58,1.82 1.97,-0.53 3.78,-1.18 5.58,-1.82"
         style="fill:#7989af;fill-opacity:1;fill-rule:nonzero;stroke:none"
         id="path102" />
      <path
         d="m 7441.76,4776.24 c 2.11,-1.46 4.26,-2.93 6.46,-4.39 -1.66,1.66 -3.79,3.14 -6.46,4.39"
         style="fill:#7989af;fill-opacity:1;fill-rule:nonzero;stroke:none"
         id="path104" />
      <path
         d="m 7434.02,4725.01 c 0.73,-36.77 66.75,21.27 36.06,34.62 -8.08,3.51 -15.22,7.81 -21.86,12.22 16.35,-16.46 -13.86,-50.39 -14.2,-46.84"
         style="fill:#7989af;fill-opacity:1;fill-rule:nonzero;stroke:none"
         id="path106" />
      <path
         d="m 2208.71,3907.99 c -4.09,-8.76 -7.97,-19.58 -11.64,-32.08 3.95,10.94 7.91,21.69 11.9,32.07 -0.09,-0.01 -0.16,0.01 -0.26,0.01"
         style="fill:#7989af;fill-opacity:1;fill-rule:nonzero;stroke:none"
         id="path108" />
      <path
         d="m 5453.05,4041.17 c -0.8,2.17 -1.68,4.34 -2.46,6.51 0.8,-2.16 1.64,-4.34 2.46,-6.51"
         style="fill:#7989af;fill-opacity:1;fill-rule:nonzero;stroke:none"
         id="path110" />
      <path
         d="m 8184.08,4583.41 c -9.2,-0.07 -18.38,-0.16 -27.58,-0.25 9.48,-1.41 18.66,-1.29 27.58,0.25"
         style="fill:#7989af;fill-opacity:1;fill-rule:nonzero;stroke:none"
         id="path112" />
      <path
         d="m 5143.63,3990.34 c -16.07,-2.24 -32.2,-3.98 -48.26,-5.94 16.09,1.96 32.22,3.7 48.26,5.94"
         style="fill:#7989af;fill-opacity:1;fill-rule:nonzero;stroke:none"
         id="path114" />
      <path
         d="m 5195.63,4806.8 c -0.02,0.01 -0.02,0.02 -0.04,0.03 -0.1,-0.01 -0.12,-0.02 0.04,-0.03"
         style="fill:#7989af;fill-opacity:1;fill-rule:nonzero;stroke:none"
         id="path116" />
      <path
         d="m 1530.87,4173.1 c -43.45,-28.86 -86.94,-98.31 -126.48,-175.19 0.28,-3.44 0.51,-6.69 0.7,-9.7 26.57,45.89 77.15,152.78 125.78,184.89"
         style="fill:#7989af;fill-opacity:1;fill-rule:nonzero;stroke:none"
         id="path118" />
      <path
         d="m 2557.32,3922.32 c 0.75,1.55 1.49,3.08 2.25,4.54 -0.77,-1.46 -1.5,-3 -2.25,-4.54"
         style="fill:#7989af;fill-opacity:1;fill-rule:nonzero;stroke:none"
         id="path120" />
      <path
         d="m 2544.42,3884.83 c 3.17,12.52 6.9,23.9 11.24,33.82 -4.37,-9.88 -8.1,-21.22 -11.24,-33.82"
         style="fill:#7989af;fill-opacity:1;fill-rule:nonzero;stroke:none"
         id="path122" />
      <path
         d="m 5174.78,3301.79 c -1.44,-0.07 -9.86,5.61 -17.07,12.38 0.02,-0.25 0.02,-0.5 0.04,-0.75 4.59,-7.7 10.42,-11.95 17.03,-11.63"
         style="fill:#7989af;fill-opacity:1;fill-rule:nonzero;stroke:none"
         id="path124" />
      <path
         d="m 2660.08,3958.86 c -0.67,-5.06 -1.31,-10.12 -1.94,-15.2 6.02,8.53 8.38,15.01 1.94,15.2"
         style="fill:#7989af;fill-opacity:1;fill-rule:nonzero;stroke:none"
         id="path126" />
      <path
         d="m 5844.69,3536.67 c 4.97,5.32 10.66,9.59 17.64,12.38 h -0.01 c -6.99,-2.79 -12.65,-7.06 -17.63,-12.38"
         style="fill:#7989af;fill-opacity:1;fill-rule:nonzero;stroke:none"
         id="path128" />
      <path
         d="m 5929.59,5532.53 c 4.1,6.76 32.16,38.14 17.76,47.03 -4.54,-10.2 -8.89,-21.19 -13.08,-32.87 1.04,-0.01 2.1,-0.01 3.15,-0.01 -3.1,-5.87 -5.6,-10.47 -7.83,-14.15"
         style="fill:#7989af;fill-opacity:1;fill-rule:nonzero;stroke:none"
         id="path130" />
      <path
         d="m 5580.61,4659.52 c 2.43,0.04 4.8,-0.15 7.1,-0.6 -2.3,0.45 -4.67,0.64 -7.1,0.6"
         style="fill:#7989af;fill-opacity:1;fill-rule:nonzero;stroke:none"
         id="path132" />
      <path
         d="m 6262.27,4113.86 c -6.76,4.43 -12.46,10.37 -18.83,15.45 6.37,-5.08 12.05,-11.02 18.83,-15.45"
         style="fill:#7989af;fill-opacity:1;fill-rule:nonzero;stroke:none"
         id="path134" />
      <path
         d="m 3314.36,3480.54 c -1.45,-0.08 -9.87,5.6 -17.08,12.37 0.01,-0.24 0.02,-0.49 0.03,-0.74 4.59,-7.72 10.42,-11.97 17.05,-11.63"
         style="fill:#7989af;fill-opacity:1;fill-rule:nonzero;stroke:none"
         id="path136" />
      <path
         d="m 2722.55,4193.88 c 4.52,8.8 9.27,17.15 14.31,24.85 -5.14,-7.76 -9.89,-16.08 -14.31,-24.85"
         style="fill:#7989af;fill-opacity:1;fill-rule:nonzero;stroke:none"
         id="path138" />
      <path
         d="m 8559.79,4426.66 c 0.14,0.01 0.24,0.04 0.39,0.05 -0.69,0.16 -0.71,0.12 -0.39,-0.05"
         style="fill:#7989af;fill-opacity:1;fill-rule:nonzero;stroke:none"
         id="path140" />
      <path
         d="m 4958.73,3341.62 c 10.92,-5.54 21.42,-11.75 31.58,-18.48 0,0.03 0,0.06 0,0.08 -8.8,11.45 -18.67,19.57 -31.58,18.4"
         style="fill:#7989af;fill-opacity:1;fill-rule:nonzero;stroke:none"
         id="path142" />
      <path
         d="m 6667.08,3913.46 c 10.93,-5.53 21.42,-11.73 31.58,-18.45 0,0.02 0.01,0.05 0,0.08 -8.8,11.45 -18.66,19.56 -31.58,18.37"
         style="fill:#7989af;fill-opacity:1;fill-rule:nonzero;stroke:none"
         id="path144" />
      <path
         d="m 2013.91,3605.59 c -1.02,-1.26 -1.92,-2.66 -2.87,-3.98 2.36,0.86 4.43,1.67 6.05,2.41 -1.05,0.53 -1.95,1.14 -3.18,1.57"
         style="fill:#7989af;fill-opacity:1;fill-rule:nonzero;stroke:none"
         id="path146" />
      <path
         d="m 5447.13,4057.45 c -3.26,9.34 -6.45,18.68 -9.3,28.03 2.81,-9.26 5.98,-18.62 9.3,-28.03"
         style="fill:#7989af;fill-opacity:1;fill-rule:nonzero;stroke:none"
         id="path148" />
      <path
         d="m 2021.64,4098.15 c 2.03,1.8 3.94,3.74 6.15,5.36 -2.15,-1.59 -4.18,-3.42 -6.15,-5.36"
         style="fill:#7989af;fill-opacity:1;fill-rule:nonzero;stroke:none"
         id="path150" />
      <path
         d="m 2541.93,3874.29 c 0.58,2.6 1.2,5.12 1.8,7.64 -0.6,-2.54 -1.23,-5.01 -1.8,-7.64"
         style="fill:#7989af;fill-opacity:1;fill-rule:nonzero;stroke:none"
         id="path152" />
      <path
         d="m 4781.06,4632.84 c 0.07,0.24 0.14,0.49 0.21,0.72 -0.07,-0.24 -0.14,-0.48 -0.21,-0.72"
         style="fill:#7989af;fill-opacity:1;fill-rule:nonzero;stroke:none"
         id="path154" />
      <path
         d="m 8284.92,4385.81 c 1.19,1.68 2.27,3.49 3.5,5.14 -1.37,-1.77 -2.52,-3.48 -3.5,-5.14"
         style="fill:#7989af;fill-opacity:1;fill-rule:nonzero;stroke:none"
         id="path156" />
      <path
         d="m 4787,4652.33 c 0.17,0.53 0.33,1.04 0.5,1.57 -0.17,-0.53 -0.33,-1.04 -0.5,-1.57"
         style="fill:#7989af;fill-opacity:1;fill-rule:nonzero;stroke:none"
         id="path158" />
      <path
         d="m 2608.01,4313.26 c 1.5,1.65 2.86,3.4 4.41,5.02 -1.18,-0.94 -2.68,-2.68 -4.41,-5.02"
         style="fill:#7989af;fill-opacity:1;fill-rule:nonzero;stroke:none"
         id="path160" />
      <path
         d="m 1849.55,4306.43 c 2.34,1.33 4.59,2.78 7.01,4.01 -2.29,-1.11 -4.64,-2.48 -7.01,-4.01"
         style="fill:#7989af;fill-opacity:1;fill-rule:nonzero;stroke:none"
         id="path162" />
      <path
         d="m 8295,4398.95 c 1.41,0.46 2.66,0.94 3.82,1.43 -1.24,-0.2 -2.51,-0.62 -3.82,-1.43"
         style="fill:#7989af;fill-opacity:1;fill-rule:nonzero;stroke:none"
         id="path164" />
      <path
         d="m 4473.59,6927.32 c 0.09,-2.78 0.16,-5.57 0.25,-8.38 -18.88,-14.42 -38.41,-16 -58.66,-4.66 -24.71,-7.32 -49.83,-12.43 -75.36,-15.32 23.72,8.78 47.47,17.14 71.52,24.89 -1.62,14.76 -0.3,29.48 3.95,44.15 3.18,0.34 6.35,0.69 9.53,1.03 3.59,8.71 3.54,18.17 0.38,27.03 -113.98,-38.34 -225.37,-83.25 -334.83,-132.27 67.7,1.97 135.2,-1.78 202.23,-14.64 84.8,21.02 174.14,33.86 260.19,48.24 -35.14,13.53 26.86,21.02 8.15,1.39 68.86,11.27 137.7,12.98 207.38,16.11 4.09,4.3 8.53,4.48 13.23,0.51 12.41,0.61 24.84,1 37.28,1.21 1.11,1.41 3.19,2.54 4.69,3.7 2.03,-0.66 3.88,-1.94 5.49,-3.59 25.99,0.02 51.91,1.42 77.8,4.23 -1.03,2.63 -1.97,5.32 -3.02,7.95 -0.02,3.73 -0.02,7.45 -0.04,11.18 3.86,1.32 7.71,2.63 11.58,3.95 -147.21,-2.67 -294.31,14.86 -441.74,-16.71"
         style="fill:#7989af;fill-opacity:1;fill-rule:nonzero;stroke:none"
         id="path166" />
      <path
         d="m 1363.36,3938.44 c -5.61,-14.37 -11.72,-28.52 -18.33,-42.43 12.98,15.67 24.5,32.29 34.58,49.88 -4.24,-1.03 -9.12,-2.01 -14.7,-2.99 -0.54,-1.46 -0.96,-3.02 -1.55,-4.46"
         style="fill:#7989af;fill-opacity:1;fill-rule:nonzero;stroke:none"
         id="path168" />
      <path
         d="m 1869.98,3568.43 c 3.73,8.39 7.15,16.85 9.81,25.49 -3.02,-0.64 -5.03,-1.9 -6.38,-3.64 -2.95,-7.04 -4.09,-14.33 -3.43,-21.85"
         style="fill:#7989af;fill-opacity:1;fill-rule:nonzero;stroke:none"
         id="path170" />
      <path
         d="m 9565.01,4879.11 c -0.17,2.56 -1.38,4.64 -3.15,6.35 0.9,-3.59 1.75,-7.15 2.57,-10.69 0.43,1.24 0.7,2.63 0.58,4.34"
         style="fill:#7989af;fill-opacity:1;fill-rule:nonzero;stroke:none"
         id="path172" />
      <path
         d="m 9536.02,4825.61 c 5.5,-6.49 8.42,-13.78 8.78,-21.87 -17.24,6.19 -17.5,6.81 -8.78,21.87 z m -98.11,-172.45 c 2.65,0.76 5.89,2.77 7.79,1.87 1.66,-0.77 1.83,-4.77 2.65,-7.35 -8.62,-2.54 -7.13,-4.48 -10.44,5.48 z m -246.54,113.58 c -10.7,1.62 -15.86,7.22 -15.51,16.8 3.61,0.06 7.19,0.16 10.8,0.22 12.96,-6.42 14.53,-12.09 4.71,-17.02 z m 339.06,110.13 c -9.52,14.58 21.29,18.35 31.43,8.59 -12.86,50.58 -35.28,103.26 -68.61,90.2 17.36,6.69 33.58,-180.61 8,-211.09 -34.82,-78.39 -125.64,-72.1 -196.99,-53.89 l -15.76,-12.57 c -77,51.19 -156.14,188.67 -37.39,248.96 138.69,70.41 103.57,-108.21 85.88,-97.61 50.02,-31.99 43.3,83.78 27.17,106.02 -33.96,46.76 -114.15,37.5 -156.61,5.67 -112.8,-84.63 -49.32,-240.57 66.53,-274.03 -24.62,-17.96 -63.05,-37.82 -93.13,-19.88 l -0.75,-0.89 -57.54,12.77 c -71.81,-16.89 -112.6,65.43 -165.51,102.2 9.69,-22.28 14.59,-37.05 32.19,-55.6 -10.71,-11.68 -27.09,-18.69 -33.15,-34.21 51.06,-52.36 107.48,-97.13 183.87,-77.79 58.18,-42.97 131.68,-13.83 181.13,26.44 117.6,-22.08 240.15,28.24 253.95,163.49 0.6,5.97 -2.84,36.94 -10.71,71.12 -4.09,-11.74 -30.31,-3.55 -34,2.1"
         style="fill:#7989af;fill-opacity:1;fill-rule:nonzero;stroke:none"
         id="path174" />
      <path
         d="m 8260.06,4959.55 c -3.22,-7.43 -5.9,-15.18 -7.33,-23.61 4.42,-6.67 6.72,-13.78 8.03,-21.07 25.73,25.07 136.29,38.03 129.69,-18.38 -2.08,-3.6 -11.95,-15.24 -14.38,-16.51 -12.14,-16.21 23.13,6.12 25.6,18.32 14.49,71.78 -99.23,84.95 -141.61,61.25"
         style="fill:#7989af;fill-opacity:1;fill-rule:nonzero;stroke:none"
         id="path176" />
      <path
         d="m 5845.68,4700.97 c 1.9,2.65 3.77,5.32 5.68,7.98 2.74,-5.95 -0.48,-7.66 -5.68,-7.98 z m 13.03,38.07 c -20.33,-0.82 -26.8,-11.47 -42.93,-18.51 5.67,-51.49 10,-102.59 20.98,-153.32 33.22,-0.34 32.61,-17.48 4.9,-22.21 14.04,-60.93 29.92,-122.68 50.37,-181.87 0.78,0.76 1.6,1.51 2.31,2.29 -2.82,21.09 -16.09,60.4 19.61,60.97 -20.98,104.23 -35.36,209.08 -54.83,313.5 -0.17,-0.28 -0.22,-0.57 -0.41,-0.85"
         style="fill:#7989af;fill-opacity:1;fill-rule:nonzero;stroke:none"
         id="path178" />
      <path
         d="m 5085.9,4849.15 c 1.99,-13.92 -3.11,-10.01 -9.47,-0.46 3.14,0.29 6.29,0.46 9.47,0.46 z m 23.24,65.74 c 16,154.53 50.66,334.15 129.49,469.28 -15.75,-3.15 -31.61,-5.99 -47.58,-8.2 -134.72,-310.71 -151.81,-672.53 -80.44,-1001.13 1.34,8.16 4.12,15.97 9.71,23.08 0.62,2.03 0.38,4 -0.66,5.85 1.21,1.05 2.15,1.83 3.24,2.76 -12.57,73.73 -18.08,146.03 -20.65,220.69 -6.96,-0.25 -13.93,-0.41 -20.82,-1.07 l 0.68,1.1 c -1.03,20.63 0.12,40.31 19.61,52.62 0.04,59.47 2.17,119.43 4.14,178.83 -0.58,-0.3 -0.94,-0.69 -1.54,-0.96 -0.14,8.84 -0.28,17.68 -0.4,26.53 -6.07,3.31 -12.1,6.6 -18.16,9.9 -0.84,14.33 6.95,21.23 23.38,20.72"
         style="fill:#7989af;fill-opacity:1;fill-rule:nonzero;stroke:none"
         id="path180" />
      <path
         d="m 5171.74,4147.5 c 31.83,-100.9 62.6,-203.98 110.88,-298.62 -37.91,99.62 -69.87,199.07 -101.33,301.11 -2.65,-2.63 -6.15,-3.5 -9.55,-2.49"
         style="fill:#7989af;fill-opacity:1;fill-rule:nonzero;stroke:none"
         id="path182" />
      <path
         d="m 5159.45,4226.75 c -11.13,43.15 -20.09,86.91 -28.3,130.74 -0.92,0.19 -1.82,0.35 -2.69,0.62 0.02,-0.23 0.02,-0.43 0.04,-0.66 -0.3,-0.05 -0.61,-0.1 -0.94,-0.12 -0.29,-7.81 -3.6,-12.73 -8.82,-15.77 15.62,-59 29.05,-118.65 47.68,-176.83 1.59,4.32 3.77,8.07 6.82,10.9 -2.83,8.84 -5.29,17.8 -7.35,26.87 -6.36,7.8 -8.5,15.89 -6.44,24.25"
         style="fill:#7989af;fill-opacity:1;fill-rule:nonzero;stroke:none"
         id="path184" />
      <path
         d="m 3566.29,6444.72 c -2.79,-1.74 -4.77,-3.39 -6.12,-4.97 3.28,1.24 6.55,2.52 9.84,3.74 -1.18,0.42 -2.32,0.84 -3.72,1.23"
         style="fill:#7989af;fill-opacity:1;fill-rule:nonzero;stroke:none"
         id="path186" />
      <path
         d="m 4414.86,6743.25 c 6.8,-6.08 10.72,-13.46 10.28,-22.81 -16.27,6.42 -16.29,6.44 -10.28,22.81 z m -853.71,-214.93 22.53,-5.08 c -7.72,0.37 -15.36,2.08 -22.53,5.08 z m 831.98,231.63 c 0.08,-0.2 0.2,-0.48 0.29,-0.64 -0.39,-30.57 -15.53,-8.41 -15.59,-1 -192.48,-21.14 -375.17,-6.08 -563.95,-83.05 5.91,-4.18 16.95,-17.8 2.88,-21.09 -13.17,6.03 -26.35,12.04 -39.53,18.07 1.54,1.85 2.64,3.93 3.28,6.29 9.02,0.39 18.08,0.78 27.13,1.19 1.62,-1.17 3.24,-2.36 4.89,-3.5 68.31,34.82 139.33,65.93 209.95,96.07 -271.03,-26.99 -581.54,-215.47 -761.11,-423.32 0.02,-2.33 -0.02,-4.66 -0.26,-6.97 -2.72,-9.59 -6.32,-15.51 -10.73,-18.01 25.75,9.98 56.52,14.64 67.23,-19.7 161.4,107.78 416.85,165.09 607.21,191.19 -0.02,2.88 -0.15,5.76 -0.47,8.64 -7.85,4.18 -12.59,10.19 -15.4,17.27 -28.87,-0.68 -57.44,-4.02 -85.66,-10.08 -3.31,-5.14 -6.33,-5.64 -9.03,-1.52 -86.55,-14.16 -166.32,-37.36 -244.25,-66.3 12.74,-4.48 13.41,-10.2 1.69,-17.19 -12.4,3.52 -16.17,8.02 -11.53,13.45 -74.96,-28.35 -148.43,-61.83 -224.81,-97.59 129.28,122.03 328.95,180.4 497.07,236.8 2.86,9.05 6.93,10.53 12.18,4.48 160.75,68.92 311.69,80.42 481.21,120.66 -8.32,16.59 8.85,18.08 10.33,2.36 110.61,24.17 244.46,-4.35 357.72,-3.02 75.32,0.89 304.19,31.31 354.65,-16.09 -59.62,56.01 -280.2,35.99 -365.92,47.83 -96.37,13.3 -190.28,34.32 -289.47,24.77"
         style="fill:#7989af;fill-opacity:1;fill-rule:nonzero;stroke:none"
         id="path188" />
      <path
         d="m 3250.38,6323.99 c -0.89,-0.34 -1.79,-0.69 -2.67,-1.05 0.92,0.22 1.82,0.57 2.67,1.05"
         style="fill:#7989af;fill-opacity:1;fill-rule:nonzero;stroke:none"
         id="path190" />
      <path
         d="m 3239.01,6324.24 c -3.27,-3.24 -6.55,-6.49 -9.82,-9.76 5.44,2.7 11.79,5.72 18.52,8.46 -2.64,-0.63 -5.52,-0.28 -8.7,1.3"
         style="fill:#7989af;fill-opacity:1;fill-rule:nonzero;stroke:none"
         id="path192" />
      <path
         d="m 3949.92,6516.37 c 0.64,-6.24 -3.08,-12.55 -11.54,-18.04 -1.35,-0.89 -3.05,-1.23 -4.71,-1.64 41.75,4.91 114.65,8.43 142.94,10.17 -44.79,-2.74 -83.13,0.25 -126.69,9.51"
         style="fill:#7989af;fill-opacity:1;fill-rule:nonzero;stroke:none"
         id="path194" />
      <path
         d="m 3548.14,6276.16 c -139.83,-12.48 -249.2,-55.21 -376.77,-106.22 14.33,16.66 28.84,33.16 43.54,49.5 -24.36,-14.01 -58.44,-43.92 -85.95,-16.09 -3,-3.54 -5.79,-7.24 -8.75,-10.79 8.45,-5.87 15.63,-13.11 21.53,-21.77 -1.63,-6.95 -1.29,-15.11 -10.86,-16.91 0.02,-0.35 0.04,-0.69 0.04,-1.03 0.1,-0.07 0.08,-1.35 0.08,-1.35 l -0.08,1.35 c 0,0.02 -0.02,0.04 -0.02,0.04 v -0.02 c -6.72,10.22 -16.61,15.61 -29.73,16.18 -42.6,-52.24 -185,-190.48 -209.39,-254.79 l 3.38,3.8 2.39,-6.9 -6.55,1.07 c -28.69,-78.43 -120.14,-176.93 -124.03,-259.74 -19.81,-37.94 -36.68,-77.48 -59.99,-113.26 6.45,1.96 60.29,24.13 68.59,24.22 54.52,111.23 168.69,199.12 268.65,268.06 68.51,47.26 331.91,224.99 408.53,206.14 -68.65,17.07 -257.87,-94.02 -318.12,-121.01 -93.95,-42.05 -192.42,-93.31 -263.26,-172.06 112.5,197.15 298.54,363.96 512.93,439.12 100.52,35.25 446.48,142.15 557.58,87.48 -81.63,41.31 -300.26,13.33 -393.74,4.98"
         style="fill:#7989af;fill-opacity:1;fill-rule:nonzero;stroke:none"
         id="path196" />
      <path
         d="m 3941.88,6271.18 c 0.23,-0.12 0.46,-0.23 0.69,-0.34 -0.23,0.11 -0.46,0.22 -0.69,0.34"
         style="fill:#7989af;fill-opacity:1;fill-rule:nonzero;stroke:none"
         id="path198" />
      <path
         d="m 3942.57,6270.84 c 3.45,-1.74 6.69,-3.61 9.66,-5.67 -2.93,2.04 -6.21,3.89 -9.66,5.67"
         style="fill:#7989af;fill-opacity:1;fill-rule:nonzero;stroke:none"
         id="path200" />
      <path
         d="m 3169.25,5713.87 c 43.67,32.79 93.7,59.3 143.46,81.49 15.14,7.2 78.44,33.87 95.38,33.6 -80.24,1.21 -180.11,-65.86 -245.26,-107.73 2.89,-1.33 5.16,-3.71 6.42,-7.36"
         style="fill:#7989af;fill-opacity:1;fill-rule:nonzero;stroke:none"
         id="path202" />
      <path
         d="m 3148.41,5711.65 c -69.2,-45.73 -139.91,-88.34 -203.83,-141.3 13.8,0.46 27.63,0.87 41.5,1.29 54.37,48.35 113.15,88.76 170.8,132.81 -4.05,0.71 -7.09,3.06 -8.47,7.2"
         style="fill:#7989af;fill-opacity:1;fill-rule:nonzero;stroke:none"
         id="path204" />
      <path
         d="m 3919.73,3438.33 c -0.94,2.47 -1.92,4.92 -2.82,7.41 -0.86,-2.49 -0.02,-5.03 2.82,-7.41"
         style="fill:#7989af;fill-opacity:1;fill-rule:nonzero;stroke:none"
         id="path206" />
      <path
         d="m 3860.33,3494.09 c -13.87,0.9 -19.56,9.33 -17.05,25.32 -0.24,-0.04 -0.5,-0.04 -0.74,-0.06 l -1.19,2.51 1.99,-1.78 c -0.03,-0.23 -0.03,-0.44 -0.06,-0.67 10.52,1.26 33.05,-11.9 17.05,-25.32 z m -14.34,-42.73 c -13.3,14.81 6.32,16.52 15.51,-0.51 -5.16,0.17 -10.35,0.35 -15.51,0.51 z m -15.13,248.55 c -1.79,3.77 -0.68,4.08 3.31,1 -1.09,-0.34 -2.2,-0.69 -3.31,-1 z m -58.92,384.38 c -4.87,8 -3.52,10.94 4.95,5.37 -1.64,-1.81 -3.28,-3.59 -4.95,-5.37 z m 132.69,-683.14 c 3.28,33.66 -6.68,47.21 -0.8,81.27 -83.87,237.02 -129.77,530.82 -98,780.26 -40.59,9.55 -32.45,-1.79 -62.86,37.7 27.42,1.86 49.32,-6.33 64.21,-27.12 7.14,51.83 11.2,104.8 25.83,155.14 -2.09,1.24 -3.91,2.84 -5.92,4.14 -43.5,-21.09 -92.08,-30.69 -140.29,-27.56 -0.1,-0.82 -0.14,-1.67 -0.21,-2.51 3.16,-3 6.9,-5.65 10.37,-8.25 -3.15,-4.99 -6.26,-10.04 -9.41,-15.06 -0.99,-0.32 -1.99,-0.55 -2.98,-0.83 -26.41,-344.96 34.53,-613.77 149.84,-937.41 41.03,-32.82 82.94,-63.9 126.5,-93.24 -8.96,17.89 -17.51,35.97 -25.62,54.25 -10.23,-0.25 -20.45,-0.53 -30.66,-0.78"
         style="fill:#7989af;fill-opacity:1;fill-rule:nonzero;stroke:none"
         id="path208" />
      <path
         d="m 3453.13,4363.53 c -30.31,-2.27 0.86,35.99 5.37,5.87 -1.74,-2.04 -3.43,-5.74 -5.37,-5.87 z m -6.49,-324.1 c -5.23,-12.55 -20.49,7.86 -6.27,15.75 7.25,-3.34 8.89,-9.44 6.27,-15.75 z m 213.73,353.14 c -1.02,0.87 -2.05,1.72 -3.06,2.58 -9.89,-2.3 -19.79,-4.64 -29.68,-6.97 9.89,2.33 19.79,4.67 29.68,7.02 1.6,2.19 2.97,4.07 4.29,5.81 l 1,6.73 c -52.81,8.03 -98.75,30.15 -137.81,66.32 -19.72,-24.74 -44.24,-47.17 -71.53,-66.11 -4.39,-16.57 -21.66,-39.53 -17.48,-11.51 -5.9,-3.62 -11.88,-7.05 -17.94,-10.31 -48.61,-207.96 -81.51,-445.79 77.17,-620.2 -45.22,205.47 -50.48,482.28 22.39,683 -18.28,-50.76 -15.51,-176.84 -21.91,-247.91 2.54,0.59 5.06,1.19 7.6,1.78 14.34,19.79 25.56,17.48 39.66,-0.96 -3.15,-5 -6.29,-10.05 -9.43,-15.08 -2.77,-0.92 -5.56,-1.69 -8.42,-2.33 -7.26,6.1 -14.55,12.18 -21.81,18.32 -2.54,-0.56 -5.06,-1.18 -7.6,-1.77 -3.5,-38.79 -1.8,-76.79 -1.35,-115.87 16.57,3.36 16.95,-9.28 0.03,-13.76 0.09,-121.71 18.35,-242.6 51.53,-360.13 64.93,-69.04 132.15,-135.54 203,-198.18 -113.58,272.22 -127.4,590.35 -88.33,879.53"
         style="fill:#7989af;fill-opacity:1;fill-rule:nonzero;stroke:none"
         id="path210" />
      <path
         d="m 4031.89,3507.62 c 0.4,0.67 -58.55,-37.63 -51.37,1.21 2.74,14.92 45,2.77 47.62,2.47 1.49,2.49 2.84,3.27 4.1,2.33 3.4,0.37 3.29,-1.62 -0.36,-5.96 l -0.03,0.02 z m -83.98,565.47 c -23.26,-3.79 4.52,40.13 16.29,13.62 -1.06,-9.53 -8.46,-12.34 -16.29,-13.62 z m 52.72,-488.23 c 6.09,26.59 18.1,-20.41 20.82,-23.61 0.19,0.2 0.39,0.34 0.56,0.56 -0.04,-0.89 -0.26,-0.92 -0.56,-0.56 -12.2,-12.96 -25.16,4.33 -20.82,23.61 z m 20.5,95.62 c 1.51,-1.69 2.74,-3.61 4.07,-5.48 -3.19,-3.66 -5.58,-2.52 -7.18,3.45 1.08,0.71 2.98,2.17 3.11,2.03 z m -140.9,387.79 c -0.13,4.02 1.7,5.44 5.51,4.27 3.22,-4.96 1.41,-6.37 -5.51,-4.27 z m 110.86,344.94 c -45.72,-14.56 -100.19,-13.28 -143.87,7.61 -87.02,-396.82 61.06,-754.39 187.68,-1120.79 42.93,-26.26 86.59,-51.07 130.69,-75.16 17.2,5.8 28.79,-0.46 34.72,-18.77 2.47,-1.32 4.9,-2.65 7.37,-3.97 -26.78,53.66 -53.05,108.21 -74.61,164.19 -136.14,332.12 -163.23,690.27 -141.98,1046.89"
         style="fill:#7989af;fill-opacity:1;fill-rule:nonzero;stroke:none"
         id="path212" />
      <path
         d="m 4022.01,3561.81 c -0.17,-0.22 -0.37,-0.36 -0.56,-0.56 0.3,-0.36 0.52,-0.33 0.56,0.56"
         style="fill:#7989af;fill-opacity:1;fill-rule:nonzero;stroke:none"
         id="path214" />
      <path
         d="m 4218.96,3749.95 1.65,2.38 1.01,-2.7 z m 82.73,-375.1 c -18.33,7.38 -17.75,13.05 1.71,16.98 5.37,6.56 20.56,26.44 30.78,16.84 -68.07,174.64 -96.93,339.57 -117.16,524.43 -18.67,194.13 -12.04,380.54 8.23,574.01 -34.23,-3.04 -68.29,-7.52 -102.11,-13.44 -27.96,-261 -24.19,-539.75 34.88,-796.51 19.69,13.9 38.39,16 57.62,-0.75 31.94,-9.21 4.33,-42.28 -4.47,-10.54 -17.75,1.65 -34,-1.03 -48.49,-9.04 44.47,-196.47 114.28,-376.37 201.56,-557.23 41.78,-5.93 69.01,-26.39 81.7,-61.38 20.66,-11.81 46.62,-22.96 68.48,-32.31 -71.75,113.24 -128.01,241.1 -174.07,366.83 3.22,-27.03 -20.67,-29.11 -38.66,-17.89"
         style="fill:#7989af;fill-opacity:1;fill-rule:nonzero;stroke:none"
         id="path216" />
      <path
         d="m 3802.86,5870.91 c -161.57,25.8 -319.43,-162.23 -233.37,-312.03 -36.25,2.22 -72.17,-0.64 -107.75,-8.54 78.73,-12.83 162.12,-30.26 239.04,-60.24 -98.41,110.37 -85.33,367.67 120.45,326.31 39.4,-7.08 88.77,-33 95.16,-75.3 6.88,-45.32 -71.8,-34.3 -68,-23.29 -13.81,-36.63 76.21,-18.65 82.74,39.88 8.05,72.33 -74.55,104.62 -128.27,113.21"
         style="fill:#7989af;fill-opacity:1;fill-rule:nonzero;stroke:none"
         id="path218" />
      <path
         d="m 4069.07,4451.25 c -6.75,-4.5 -13.57,-8.79 -20.56,-12.74 -4.27,-108.21 -0.78,-217.63 5.04,-325.75 5.77,-109.21 3.74,-223.18 30.9,-330.06 -31.42,218.01 -31.65,448.97 -15.38,668.55"
         style="fill:#7989af;fill-opacity:1;fill-rule:nonzero;stroke:none"
         id="path220" />
      <path
         d="m 2238.44,3618.28 c -1.72,2.05 -1.35,3.9 1.09,5.5 0.87,5.35 1.6,10.7 2.17,16.11 -4.18,-17.07 -12.48,-33.61 -14.71,-51.05 6,9.12 9.83,18.92 11.45,29.44"
         style="fill:#7989af;fill-opacity:1;fill-rule:nonzero;stroke:none"
         id="path222" />
      <path
         d="m 1146.72,4970.36 -5.86,3.72 6.7,2.31 z m 2220.82,548.41 c -222.06,57.09 -450.31,62.14 -671.96,1.74 9.78,-4.36 15.29,-11.47 16.5,-21.25 -18.47,-23.79 -48.7,-22.08 -68.99,4.16 -239.48,-81.56 -465.97,-197.54 -720.04,-231.52 -252.6,-33.78 -461.17,-8.3 -690.3,-158.12 2.63,-3.47 3.8,-7.4 3.5,-11.77 -4.94,-17 -76.62,-102.9 -87.45,-47.99 -342.64,-263.79 -523.82,-687.84 -685.265,-1076.91 142.168,175.35 233.301,396.01 354.629,585.17 -0.027,1.55 0.906,2.85 2.539,3.9 147.735,228.41 347.427,393.32 615.667,446.61 124.39,24.71 247.75,18.45 374.17,9.85 93.41,-6.35 326.98,-0.24 407.19,-56.06 -121.77,90.99 -516.73,114.46 -656.71,103.05 -13.93,-17.55 -26.01,-18.97 -36.27,-4.25 -130.13,-20.27 -217.63,-23.61 -343.26,-73.79 310.69,237.16 641.17,156.45 992.06,262 123.93,-10.76 239.96,0.89 364.23,-25.96 77.59,-16.77 342.65,-56.31 384.43,-116.48 -66,94.72 -302.48,100.65 -401.7,152.47 -25.32,-26.48 -46.71,-21.25 -64.2,15.71 -50.24,9.32 -103.89,9.09 -154.87,15.08 26.02,8.61 51.9,17.75 77.56,27.45 2.99,5.16 8.32,6.92 13.68,4.88 222.98,80.49 420.52,197.43 663.63,149.46 122.24,-24.11 229.05,-80.44 335.72,-143.31 60.72,-35.76 285.78,-136.45 300.43,-201.13 -15.06,69.57 -221.62,177.78 -281.95,219.78 -86.37,60.1 -172.09,106.19 -269.9,147.17 103.71,-7.29 206.04,-26.21 306.16,-53.86 1.16,4.11 2.13,8.29 2.86,12.64 -20.41,-1.35 -38.05,4.04 -52.93,16.13 17.67,-5.4 35.31,-10.79 52.95,-16.13 -0.72,-4.35 -1.69,-8.55 -2.85,-12.64 34.31,-9.49 411.74,-134.88 408.33,-148.91 21.11,21.53 -471.27,218.63 -487.59,222.83"
         style="fill:#7989af;fill-opacity:1;fill-rule:nonzero;stroke:none"
         id="path224" />
      <path
         d="m 2217.73,4966.58 c 2.54,-1.9 5.15,-3.78 7.45,-5.73 -2.31,1.98 -4.79,3.89 -7.45,5.73"
         style="fill:#7989af;fill-opacity:1;fill-rule:nonzero;stroke:none"
         id="path226" />
      <path
         d="m 424.797,3841.09 c 14.578,14.14 70,72.26 97.098,74.87 26.816,65.99 211.933,426.47 238.515,490.21 -55.898,-72.33 -267.285,-442.09 -317.422,-518.73 -6.074,-15.32 -12.129,-30.86 -18.191,-46.35"
         style="fill:#7989af;fill-opacity:1;fill-rule:nonzero;stroke:none"
         id="path228" />
    </g>
  </g>
</svg>
